<mxfile host="app.diagrams.net" agent="Mozilla/5.0 (Windows NT 10.0; Win64; x64) AppleWebKit/537.36 (KHTML, like Gecko) Chrome/135.0.0.0 Safari/537.36" version="26.2.13">
  <diagram name="Page-1" id="bQ_GWyhaZDbDopy6YQLl">
    <mxGraphModel dx="5734" dy="2243" grid="1" gridSize="10" guides="1" tooltips="1" connect="1" arrows="1" fold="1" page="1" pageScale="1" pageWidth="1654" pageHeight="1169" math="0" shadow="0">
      <root>
        <mxCell id="0" />
        <mxCell id="1" parent="0" />
        <mxCell id="8wa_8uIsnBs-MFd-Suok-54" value="" style="endArrow=classic;html=1;rounded=0;movable=0;resizable=0;rotatable=0;deletable=0;editable=0;locked=1;connectable=0;" parent="1" edge="1">
          <mxGeometry width="50" height="50" relative="1" as="geometry">
            <mxPoint x="-770.0032835820896" y="449" as="sourcePoint" />
            <mxPoint x="-683.7346268656718" y="449" as="targetPoint" />
          </mxGeometry>
        </mxCell>
        <mxCell id="8wa_8uIsnBs-MFd-Suok-72" value="" style="endArrow=classic;html=1;rounded=0;movable=0;resizable=0;rotatable=0;deletable=0;editable=0;locked=1;connectable=0;" parent="1" edge="1">
          <mxGeometry width="50" height="50" relative="1" as="geometry">
            <mxPoint x="-736.9964179104477" y="393.8685714285714" as="sourcePoint" />
            <mxPoint x="-736.9964179104477" y="345.8685714285714" as="targetPoint" />
          </mxGeometry>
        </mxCell>
        <mxCell id="8wa_8uIsnBs-MFd-Suok-42" value="" style="rounded=0;whiteSpace=wrap;html=1;flipH=1;movable=0;resizable=0;rotatable=0;deletable=0;editable=0;locked=1;connectable=0;container=0;" parent="1" vertex="1">
          <mxGeometry x="-890" y="40" width="1230" height="830" as="geometry" />
        </mxCell>
        <mxCell id="8wa_8uIsnBs-MFd-Suok-45" value="&amp;nbsp;NODE:&amp;nbsp; &amp;nbsp;A0" style="text;html=1;align=left;verticalAlign=middle;whiteSpace=wrap;rounded=0;movable=0;resizable=0;rotatable=0;deletable=0;editable=0;locked=1;connectable=0;container=0;" parent="1" vertex="1">
          <mxGeometry x="-846" y="829" width="110" height="40" as="geometry" />
        </mxCell>
        <mxCell id="8wa_8uIsnBs-MFd-Suok-46" value="TITLE:&amp;nbsp; &amp;nbsp; &amp;nbsp; &amp;nbsp;Level 1:&amp;nbsp;&lt;b&gt;Manage Learning Experience&lt;/b&gt;" style="text;html=1;align=left;verticalAlign=middle;whiteSpace=wrap;rounded=0;movable=0;resizable=0;rotatable=0;deletable=0;editable=0;locked=1;connectable=0;container=0;" parent="1" vertex="1">
          <mxGeometry x="-706" y="834.71" width="380" height="27.43" as="geometry" />
        </mxCell>
        <mxCell id="8wa_8uIsnBs-MFd-Suok-137" value="NO.:&amp;nbsp; &amp;nbsp; &amp;nbsp;P2" style="text;html=1;align=left;verticalAlign=middle;whiteSpace=wrap;rounded=0;container=0;movable=0;resizable=0;rotatable=0;deletable=0;editable=0;locked=1;connectable=0;" parent="1" vertex="1">
          <mxGeometry x="-311.52" y="832.14" width="125.52" height="36.86" as="geometry" />
        </mxCell>
        <mxCell id="8wa_8uIsnBs-MFd-Suok-43" value="" style="endArrow=none;html=1;rounded=0;movable=0;resizable=0;rotatable=0;deletable=0;editable=0;locked=1;connectable=0;exitX=1;exitY=0.952;exitDx=0;exitDy=0;exitPerimeter=0;" parent="1" edge="1">
          <mxGeometry width="50" height="50" relative="1" as="geometry">
            <mxPoint x="-889" y="830.1600000000001" as="sourcePoint" />
            <mxPoint x="340" y="830" as="targetPoint" />
          </mxGeometry>
        </mxCell>
        <mxCell id="8wa_8uIsnBs-MFd-Suok-44" value="" style="endArrow=none;html=1;rounded=0;exitX=1;exitY=1;exitDx=0;exitDy=0;movable=0;resizable=0;rotatable=0;deletable=0;editable=0;locked=1;connectable=0;" parent="1" edge="1">
          <mxGeometry width="50" height="50" relative="1" as="geometry">
            <mxPoint x="-736" y="870.0000000000001" as="sourcePoint" />
            <mxPoint x="-736" y="830" as="targetPoint" />
          </mxGeometry>
        </mxCell>
        <mxCell id="8wa_8uIsnBs-MFd-Suok-181" value="" style="endArrow=none;html=1;rounded=0;movable=0;resizable=0;rotatable=0;deletable=0;editable=0;locked=1;connectable=0;" parent="1" edge="1">
          <mxGeometry width="50" height="50" relative="1" as="geometry">
            <mxPoint x="-319.4064179104478" y="869.9999999999999" as="sourcePoint" />
            <mxPoint x="-319" y="830" as="targetPoint" />
          </mxGeometry>
        </mxCell>
        <mxCell id="8wa_8uIsnBs-MFd-Suok-192" value="" style="endArrow=classic;html=1;rounded=0;exitX=1;exitY=0.5;exitDx=0;exitDy=0;movable=0;resizable=0;rotatable=0;deletable=0;editable=0;locked=1;connectable=0;" parent="1" source="8wa_8uIsnBs-MFd-Suok-193" edge="1">
          <mxGeometry width="50" height="50" relative="1" as="geometry">
            <mxPoint x="-736.0014925373132" y="140.24" as="sourcePoint" />
            <mxPoint x="-706.0014925373134" y="140" as="targetPoint" />
          </mxGeometry>
        </mxCell>
        <mxCell id="8wa_8uIsnBs-MFd-Suok-277" style="edgeStyle=orthogonalEdgeStyle;rounded=1;orthogonalLoop=1;jettySize=auto;html=1;exitX=1;exitY=0.5;exitDx=0;exitDy=0;entryX=0.25;entryY=0;entryDx=0;entryDy=0;curved=0;movable=0;resizable=0;rotatable=0;deletable=0;editable=0;locked=1;connectable=0;" parent="1" source="8wa_8uIsnBs-MFd-Suok-193" target="8wa_8uIsnBs-MFd-Suok-175" edge="1">
          <mxGeometry relative="1" as="geometry">
            <Array as="points">
              <mxPoint x="-726" y="140" />
              <mxPoint x="-726" y="640" />
              <mxPoint x="88" y="640" />
            </Array>
          </mxGeometry>
        </mxCell>
        <mxCell id="8wa_8uIsnBs-MFd-Suok-193" value="&lt;font style=&quot;font-size: 9px;&quot;&gt;Educational Standards&lt;/font&gt;" style="text;html=1;align=left;verticalAlign=middle;whiteSpace=wrap;rounded=0;container=0;movable=0;resizable=0;rotatable=0;deletable=0;editable=0;locked=1;connectable=0;" parent="1" vertex="1">
          <mxGeometry x="-862.0014925373134" y="125" width="95" height="30" as="geometry" />
        </mxCell>
        <mxCell id="8wa_8uIsnBs-MFd-Suok-195" value="" style="endArrow=classic;html=1;rounded=0;exitX=0.5;exitY=1;exitDx=0;exitDy=0;movable=0;resizable=0;rotatable=0;deletable=0;editable=0;locked=1;connectable=0;" parent="1" source="8wa_8uIsnBs-MFd-Suok-199" edge="1">
          <mxGeometry width="50" height="50" relative="1" as="geometry">
            <mxPoint x="-665.77" y="90" as="sourcePoint" />
            <mxPoint x="-666.23" y="120" as="targetPoint" />
          </mxGeometry>
        </mxCell>
        <mxCell id="8wa_8uIsnBs-MFd-Suok-196" value="" style="endArrow=classic;html=1;rounded=0;entryX=0;entryY=0.5;entryDx=0;entryDy=0;movable=0;resizable=0;rotatable=0;deletable=0;editable=0;locked=1;connectable=0;" parent="1" target="8wa_8uIsnBs-MFd-Suok-197" edge="1">
          <mxGeometry width="50" height="50" relative="1" as="geometry">
            <mxPoint x="-626" y="144.66" as="sourcePoint" />
            <mxPoint x="-566" y="144.66" as="targetPoint" />
          </mxGeometry>
        </mxCell>
        <mxCell id="8wa_8uIsnBs-MFd-Suok-256" style="edgeStyle=orthogonalEdgeStyle;rounded=1;orthogonalLoop=1;jettySize=auto;html=1;exitX=1;exitY=0.5;exitDx=0;exitDy=0;entryX=0;entryY=0.75;entryDx=0;entryDy=0;curved=0;movable=0;resizable=0;rotatable=0;deletable=0;editable=0;locked=1;connectable=0;" parent="1" source="8wa_8uIsnBs-MFd-Suok-49" target="8wa_8uIsnBs-MFd-Suok-80" edge="1">
          <mxGeometry relative="1" as="geometry">
            <Array as="points">
              <mxPoint x="-606" y="145" />
              <mxPoint x="-606" y="160" />
              <mxPoint x="-446" y="160" />
              <mxPoint x="-446" y="391" />
            </Array>
          </mxGeometry>
        </mxCell>
        <mxCell id="8wa_8uIsnBs-MFd-Suok-197" value="&lt;span style=&quot;color: rgb(31, 35, 40); font-family: -apple-system, BlinkMacSystemFont, &amp;quot;Segoe UI&amp;quot;, &amp;quot;Noto Sans&amp;quot;, Helvetica, Arial, sans-serif, &amp;quot;Apple Color Emoji&amp;quot;, &amp;quot;Segoe UI Emoji&amp;quot;; text-align: left; background-color: rgb(255, 255, 255);&quot;&gt;&lt;font style=&quot;font-size: 9px;&quot;&gt;&amp;nbsp;Learning Materials&lt;/font&gt;&lt;/span&gt;" style="text;html=1;align=center;verticalAlign=middle;whiteSpace=wrap;rounded=0;container=0;movable=0;resizable=0;rotatable=0;deletable=0;editable=0;locked=1;connectable=0;" parent="1" vertex="1">
          <mxGeometry x="-591.0014925373134" y="140" width="82" height="10" as="geometry" />
        </mxCell>
        <mxCell id="8wa_8uIsnBs-MFd-Suok-275" style="edgeStyle=orthogonalEdgeStyle;rounded=1;orthogonalLoop=1;jettySize=auto;html=1;exitX=0.5;exitY=1;exitDx=0;exitDy=0;entryX=0;entryY=0.25;entryDx=0;entryDy=0;curved=0;movable=0;resizable=0;rotatable=0;deletable=0;editable=0;locked=1;connectable=0;" parent="1" source="8wa_8uIsnBs-MFd-Suok-199" target="8wa_8uIsnBs-MFd-Suok-175" edge="1">
          <mxGeometry relative="1" as="geometry">
            <Array as="points">
              <mxPoint x="-666" y="100" />
              <mxPoint x="44" y="100" />
              <mxPoint x="44" y="701" />
            </Array>
          </mxGeometry>
        </mxCell>
        <mxCell id="8wa_8uIsnBs-MFd-Suok-199" value="&lt;span style=&quot;color: rgb(31, 35, 40); font-family: -apple-system, BlinkMacSystemFont, &amp;quot;Segoe UI&amp;quot;, &amp;quot;Noto Sans&amp;quot;, Helvetica, Arial, sans-serif, &amp;quot;Apple Color Emoji&amp;quot;, &amp;quot;Segoe UI Emoji&amp;quot;; text-align: left; background-color: rgb(255, 255, 255);&quot;&gt;&lt;font style=&quot;font-size: 9px;&quot;&gt;&lt;u&gt;Course Objectives&lt;/u&gt;&lt;/font&gt;&lt;/span&gt;" style="text;html=1;align=center;verticalAlign=middle;whiteSpace=wrap;rounded=0;container=0;movable=0;resizable=0;rotatable=0;deletable=0;editable=0;locked=1;connectable=0;" parent="1" vertex="1">
          <mxGeometry x="-706" y="59" width="80" height="20" as="geometry" />
        </mxCell>
        <mxCell id="8wa_8uIsnBs-MFd-Suok-201" value="" style="endArrow=classic;html=1;rounded=0;movable=0;resizable=0;rotatable=0;deletable=0;editable=0;locked=1;connectable=0;" parent="1" source="8wa_8uIsnBs-MFd-Suok-202" edge="1">
          <mxGeometry width="50" height="50" relative="1" as="geometry">
            <mxPoint x="-665.77" y="170" as="sourcePoint" />
            <mxPoint x="-666" y="170" as="targetPoint" />
            <Array as="points">
              <mxPoint x="-666" y="170" />
            </Array>
          </mxGeometry>
        </mxCell>
        <mxCell id="8wa_8uIsnBs-MFd-Suok-259" style="edgeStyle=orthogonalEdgeStyle;rounded=1;orthogonalLoop=1;jettySize=auto;html=1;exitX=0.5;exitY=0;exitDx=0;exitDy=0;entryX=0.25;entryY=1;entryDx=0;entryDy=0;curved=0;movable=0;resizable=0;rotatable=0;deletable=0;editable=0;locked=1;connectable=0;" parent="1" source="8wa_8uIsnBs-MFd-Suok-202" edge="1">
          <mxGeometry relative="1" as="geometry">
            <mxPoint x="-666.0014925373134" y="387" as="sourcePoint" />
            <mxPoint x="-371" y="403.6514285714285" as="targetPoint" />
            <Array as="points">
              <mxPoint x="-666" y="424" />
              <mxPoint x="-371" y="424" />
            </Array>
          </mxGeometry>
        </mxCell>
        <mxCell id="8wa_8uIsnBs-MFd-Suok-278" style="edgeStyle=orthogonalEdgeStyle;rounded=1;orthogonalLoop=1;jettySize=auto;html=1;exitX=0.5;exitY=0;exitDx=0;exitDy=0;entryX=0.25;entryY=1;entryDx=0;entryDy=0;curved=0;movable=0;resizable=0;rotatable=0;deletable=0;editable=0;locked=1;connectable=0;" parent="1" source="8wa_8uIsnBs-MFd-Suok-202" target="8wa_8uIsnBs-MFd-Suok-175" edge="1">
          <mxGeometry relative="1" as="geometry">
            <Array as="points">
              <mxPoint x="-666" y="758" />
              <mxPoint x="88" y="758" />
            </Array>
          </mxGeometry>
        </mxCell>
        <mxCell id="8wa_8uIsnBs-MFd-Suok-202" value="&lt;span style=&quot;box-sizing: border-box; color: rgb(31, 35, 40); font-family: -apple-system, BlinkMacSystemFont, &amp;quot;Segoe UI&amp;quot;, &amp;quot;Noto Sans&amp;quot;, Helvetica, Arial, sans-serif, &amp;quot;Apple Color Emoji&amp;quot;, &amp;quot;Segoe UI Emoji&amp;quot;; text-align: left; background-color: rgb(255, 255, 255);&quot;&gt;&lt;font style=&quot;font-size: 9px;&quot;&gt;E-learning Platforms&lt;/font&gt;&lt;/span&gt;" style="text;html=1;align=center;verticalAlign=middle;whiteSpace=wrap;rounded=0;container=0;movable=0;resizable=0;rotatable=0;deletable=0;editable=0;locked=1;connectable=0;" parent="1" vertex="1">
          <mxGeometry x="-711.0014925373134" y="796" width="90" height="12" as="geometry" />
        </mxCell>
        <mxCell id="8wa_8uIsnBs-MFd-Suok-206" value="" style="endArrow=classic;html=1;rounded=1;edgeStyle=orthogonalEdgeStyle;curved=0;flowAnimation=0;shadow=0;entryX=0.5;entryY=0;entryDx=0;entryDy=0;exitX=0.5;exitY=1;exitDx=0;exitDy=0;movable=0;resizable=0;rotatable=0;deletable=0;editable=0;locked=1;connectable=0;" parent="1" source="8wa_8uIsnBs-MFd-Suok-199" target="8wa_8uIsnBs-MFd-Suok-82" edge="1">
          <mxGeometry width="50" height="50" relative="1" as="geometry">
            <mxPoint x="-666" y="99" as="sourcePoint" />
            <mxPoint x="-505.5" y="135" as="targetPoint" />
            <Array as="points">
              <mxPoint x="-666.0014925373134" y="100" />
              <mxPoint x="-506.0014925373134" y="100" />
            </Array>
          </mxGeometry>
        </mxCell>
        <mxCell id="8wa_8uIsnBs-MFd-Suok-251" style="rounded=0;orthogonalLoop=1;jettySize=auto;html=1;entryX=0;entryY=0.5;entryDx=0;entryDy=0;movable=0;resizable=0;rotatable=0;deletable=0;editable=0;locked=1;connectable=0;" parent="1" source="8wa_8uIsnBs-MFd-Suok-82" target="8wa_8uIsnBs-MFd-Suok-237" edge="1">
          <mxGeometry relative="1" as="geometry" />
        </mxCell>
        <mxCell id="8wa_8uIsnBs-MFd-Suok-82" value="&lt;span style=&quot;box-sizing: border-box; color: rgb(31, 35, 40); font-family: -apple-system, BlinkMacSystemFont, &amp;quot;Segoe UI&amp;quot;, &amp;quot;Noto Sans&amp;quot;, Helvetica, Arial, sans-serif, &amp;quot;Apple Color Emoji&amp;quot;, &amp;quot;Segoe UI Emoji&amp;quot;; text-align: left; background-color: rgb(255, 255, 255);&quot;&gt;&lt;font style=&quot;font-size: 10px;&quot;&gt;&amp;nbsp;Receive Emotional Feedback&amp;nbsp;&lt;/font&gt;&lt;/span&gt;" style="rounded=0;whiteSpace=wrap;html=1;movable=0;resizable=0;rotatable=0;deletable=0;editable=0;locked=1;connectable=0;container=0;" parent="1" vertex="1">
          <mxGeometry x="-546" y="240.00142857142856" width="80" height="50" as="geometry" />
        </mxCell>
        <mxCell id="8wa_8uIsnBs-MFd-Suok-188" style="edgeStyle=orthogonalEdgeStyle;rounded=0;orthogonalLoop=1;jettySize=auto;html=1;exitX=0.5;exitY=1;exitDx=0;exitDy=0;movable=0;resizable=0;rotatable=0;deletable=0;editable=0;locked=1;connectable=0;" parent="1" source="8wa_8uIsnBs-MFd-Suok-82" target="8wa_8uIsnBs-MFd-Suok-82" edge="1">
          <mxGeometry relative="1" as="geometry" />
        </mxCell>
        <mxCell id="8wa_8uIsnBs-MFd-Suok-135" value="&lt;font style=&quot;font-size: 9px;&quot;&gt;2&lt;/font&gt;" style="text;html=1;align=right;verticalAlign=middle;whiteSpace=wrap;rounded=0;container=0;movable=0;resizable=0;rotatable=0;deletable=0;editable=0;locked=1;connectable=0;" parent="1" vertex="1">
          <mxGeometry x="-484.6914925373135" y="270" width="18.69" height="20" as="geometry" />
        </mxCell>
        <mxCell id="8wa_8uIsnBs-MFd-Suok-263" style="edgeStyle=orthogonalEdgeStyle;rounded=0;orthogonalLoop=1;jettySize=auto;html=1;entryX=0;entryY=0.5;entryDx=0;entryDy=0;movable=0;resizable=0;rotatable=0;deletable=0;editable=0;locked=1;connectable=0;" parent="1" source="8wa_8uIsnBs-MFd-Suok-230" target="8wa_8uIsnBs-MFd-Suok-81" edge="1">
          <mxGeometry relative="1" as="geometry" />
        </mxCell>
        <mxCell id="8wa_8uIsnBs-MFd-Suok-230" value="&lt;span style=&quot;color: rgb(31, 35, 40); font-family: -apple-system, BlinkMacSystemFont, &amp;quot;Segoe UI&amp;quot;, &amp;quot;Noto Sans&amp;quot;, Helvetica, Arial, sans-serif, &amp;quot;Apple Color Emoji&amp;quot;, &amp;quot;Segoe UI Emoji&amp;quot;; text-align: left; background-color: rgb(255, 255, 255);&quot;&gt;&lt;font style=&quot;font-size: 9px;&quot;&gt;Student Performance Data&lt;/font&gt;&lt;/span&gt;" style="text;html=1;align=center;verticalAlign=middle;whiteSpace=wrap;rounded=0;container=0;movable=0;resizable=0;rotatable=0;deletable=0;editable=0;locked=1;connectable=0;" parent="1" vertex="1">
          <mxGeometry x="-516" y="484" width="110" height="10" as="geometry" />
        </mxCell>
        <mxCell id="8wa_8uIsnBs-MFd-Suok-232" value="&lt;span style=&quot;color: rgb(31, 35, 40); font-family: -apple-system, BlinkMacSystemFont, &amp;quot;Segoe UI&amp;quot;, &amp;quot;Noto Sans&amp;quot;, Helvetica, Arial, sans-serif, &amp;quot;Apple Color Emoji&amp;quot;, &amp;quot;Segoe UI Emoji&amp;quot;; text-align: left; background-color: rgb(255, 255, 255);&quot;&gt;&lt;font style=&quot;font-size: 9px;&quot;&gt;Student Assessment&lt;/font&gt;&lt;/span&gt;" style="text;html=1;align=center;verticalAlign=middle;whiteSpace=wrap;rounded=0;container=0;movable=0;resizable=0;rotatable=0;deletable=0;editable=0;locked=1;connectable=0;" parent="1" vertex="1">
          <mxGeometry x="-55" y="484" width="90" height="10" as="geometry" />
        </mxCell>
        <mxCell id="8wa_8uIsnBs-MFd-Suok-257" style="edgeStyle=orthogonalEdgeStyle;rounded=1;orthogonalLoop=1;jettySize=auto;html=1;exitX=1;exitY=0.5;exitDx=0;exitDy=0;entryX=0;entryY=0.25;entryDx=0;entryDy=0;curved=0;movable=0;resizable=0;rotatable=0;deletable=0;editable=0;locked=1;connectable=0;" parent="1" source="8wa_8uIsnBs-MFd-Suok-82" target="8wa_8uIsnBs-MFd-Suok-80" edge="1">
          <mxGeometry relative="1" as="geometry">
            <Array as="points">
              <mxPoint x="-426" y="265" />
              <mxPoint x="-426" y="366" />
            </Array>
          </mxGeometry>
        </mxCell>
        <mxCell id="8wa_8uIsnBs-MFd-Suok-237" value="&lt;span style=&quot;color: rgb(31, 35, 40); font-family: -apple-system, BlinkMacSystemFont, &amp;quot;Segoe UI&amp;quot;, &amp;quot;Noto Sans&amp;quot;, Helvetica, Arial, sans-serif, &amp;quot;Apple Color Emoji&amp;quot;, &amp;quot;Segoe UI Emoji&amp;quot;; text-align: left; background-color: rgb(255, 255, 255);&quot;&gt;&lt;font style=&quot;font-size: 9px;&quot;&gt;Emotional Feedback&lt;/font&gt;&lt;/span&gt;" style="text;html=1;align=center;verticalAlign=middle;whiteSpace=wrap;rounded=0;container=0;movable=0;resizable=0;rotatable=0;deletable=0;editable=0;locked=1;connectable=0;" parent="1" vertex="1">
          <mxGeometry x="-359.75" y="255" width="90" height="20" as="geometry" />
        </mxCell>
        <mxCell id="8wa_8uIsnBs-MFd-Suok-238" value="&lt;span style=&quot;color: rgb(31, 35, 40); font-family: -apple-system, BlinkMacSystemFont, &amp;quot;Segoe UI&amp;quot;, &amp;quot;Noto Sans&amp;quot;, Helvetica, Arial, sans-serif, &amp;quot;Apple Color Emoji&amp;quot;, &amp;quot;Segoe UI Emoji&amp;quot;; text-align: left; background-color: rgb(255, 255, 255);&quot;&gt;&lt;font style=&quot;font-size: 9px;&quot;&gt;Student Motivation&lt;/font&gt;&lt;/span&gt;" style="text;html=1;align=center;verticalAlign=middle;whiteSpace=wrap;rounded=0;container=0;movable=0;resizable=0;rotatable=0;deletable=0;editable=0;locked=1;connectable=0;" parent="1" vertex="1">
          <mxGeometry x="-245.99999999999977" y="368.35" width="80" height="20" as="geometry" />
        </mxCell>
        <mxCell id="8wa_8uIsnBs-MFd-Suok-243" value="&lt;span style=&quot;color: rgb(31, 35, 40); font-family: -apple-system, BlinkMacSystemFont, &amp;quot;Segoe UI&amp;quot;, &amp;quot;Noto Sans&amp;quot;, Helvetica, Arial, sans-serif, &amp;quot;Apple Color Emoji&amp;quot;, &amp;quot;Segoe UI Emoji&amp;quot;; text-align: left; background-color: rgb(255, 255, 255);&quot;&gt;&lt;font style=&quot;font-size: 9px;&quot;&gt;Updated Learning Materials&lt;/font&gt;&lt;/span&gt;" style="text;html=1;align=center;verticalAlign=middle;whiteSpace=wrap;rounded=0;container=0;movable=0;resizable=0;rotatable=0;deletable=0;editable=0;locked=1;connectable=0;" parent="1" vertex="1">
          <mxGeometry x="204" y="702.83" width="130" height="20" as="geometry" />
        </mxCell>
        <mxCell id="8wa_8uIsnBs-MFd-Suok-268" style="edgeStyle=orthogonalEdgeStyle;rounded=0;orthogonalLoop=1;jettySize=auto;html=1;entryX=0.5;entryY=1;entryDx=0;entryDy=0;movable=0;resizable=0;rotatable=0;deletable=0;editable=0;locked=1;connectable=0;" parent="1" source="8wa_8uIsnBs-MFd-Suok-244" target="8wa_8uIsnBs-MFd-Suok-81" edge="1">
          <mxGeometry relative="1" as="geometry" />
        </mxCell>
        <mxCell id="8wa_8uIsnBs-MFd-Suok-272" style="edgeStyle=orthogonalEdgeStyle;rounded=1;orthogonalLoop=1;jettySize=auto;html=1;entryX=0.25;entryY=1;entryDx=0;entryDy=0;exitX=0.5;exitY=0;exitDx=0;exitDy=0;curved=0;movable=0;resizable=0;rotatable=0;deletable=0;editable=0;locked=1;connectable=0;" parent="1" source="8wa_8uIsnBs-MFd-Suok-244" target="8wa_8uIsnBs-MFd-Suok-147" edge="1">
          <mxGeometry relative="1" as="geometry">
            <Array as="points">
              <mxPoint x="-206" y="630" />
              <mxPoint x="-76" y="630" />
            </Array>
          </mxGeometry>
        </mxCell>
        <mxCell id="8wa_8uIsnBs-MFd-Suok-244" value="&lt;span style=&quot;color: rgb(31, 35, 40); font-family: -apple-system, BlinkMacSystemFont, &amp;quot;Segoe UI&amp;quot;, &amp;quot;Noto Sans&amp;quot;, Helvetica, Arial, sans-serif, &amp;quot;Apple Color Emoji&amp;quot;, &amp;quot;Segoe UI Emoji&amp;quot;; text-align: left; background-color: rgb(255, 255, 255);&quot;&gt;&lt;font style=&quot;font-size: 9px;&quot;&gt;AI Algorithms&lt;/font&gt;&lt;/span&gt;" style="text;html=1;align=center;verticalAlign=middle;whiteSpace=wrap;rounded=0;container=0;movable=0;resizable=0;rotatable=0;deletable=0;editable=0;locked=1;connectable=0;" parent="1" vertex="1">
          <mxGeometry x="-236" y="658" width="60" height="30" as="geometry" />
        </mxCell>
        <mxCell id="8wa_8uIsnBs-MFd-Suok-245" value="&lt;span style=&quot;font-size: 9px; background-color: light-dark(rgb(255, 255, 255), rgb(18, 18, 18)); color: light-dark(rgb(31, 35, 40), rgb(205, 208, 212)); font-family: -apple-system, BlinkMacSystemFont, &amp;quot;Segoe UI&amp;quot;, &amp;quot;Noto Sans&amp;quot;, Helvetica, Arial, sans-serif, &amp;quot;Apple Color Emoji&amp;quot;, &amp;quot;Segoe UI Emoji&amp;quot;; text-align: left;&quot;&gt;Updated Learning Path&lt;/span&gt;" style="text;html=1;align=center;verticalAlign=middle;whiteSpace=wrap;rounded=0;container=0;movable=0;resizable=0;rotatable=0;deletable=0;editable=0;locked=1;connectable=0;" parent="1" vertex="1">
          <mxGeometry x="77" y="580" width="100" height="10" as="geometry" />
        </mxCell>
        <mxCell id="8wa_8uIsnBs-MFd-Suok-266" style="edgeStyle=orthogonalEdgeStyle;rounded=0;orthogonalLoop=1;jettySize=auto;html=1;entryX=0;entryY=0.5;entryDx=0;entryDy=0;movable=0;resizable=0;rotatable=0;deletable=0;editable=0;locked=1;connectable=0;" parent="1" source="8wa_8uIsnBs-MFd-Suok-81" target="8wa_8uIsnBs-MFd-Suok-232" edge="1">
          <mxGeometry relative="1" as="geometry" />
        </mxCell>
        <mxCell id="8wa_8uIsnBs-MFd-Suok-81" value="&lt;span style=&quot;box-sizing: border-box; color: rgb(31, 35, 40); font-family: -apple-system, BlinkMacSystemFont, &amp;quot;Segoe UI&amp;quot;, &amp;quot;Noto Sans&amp;quot;, Helvetica, Arial, sans-serif, &amp;quot;Apple Color Emoji&amp;quot;, &amp;quot;Segoe UI Emoji&amp;quot;; text-align: left; background-color: rgb(255, 255, 255);&quot;&gt;&lt;font style=&quot;font-size: 10px;&quot;&gt;Assess Student Performance&lt;/font&gt;&lt;/span&gt;" style="rounded=0;whiteSpace=wrap;html=1;movable=0;resizable=0;rotatable=0;deletable=0;editable=0;locked=1;connectable=0;container=0;" parent="1" vertex="1">
          <mxGeometry x="-246" y="464.0014285714285" width="80.00000000000001" height="50" as="geometry" />
        </mxCell>
        <mxCell id="8wa_8uIsnBs-MFd-Suok-144" value="&lt;font size=&quot;1&quot;&gt;4&lt;/font&gt;" style="text;html=1;align=center;verticalAlign=middle;whiteSpace=wrap;rounded=0;container=0;movable=0;resizable=0;rotatable=0;deletable=0;editable=0;locked=1;connectable=0;" parent="1" vertex="1">
          <mxGeometry x="-177.49901470021973" y="496.7006349206349" width="11.497882171736622" height="13.650793650793648" as="geometry" />
        </mxCell>
        <mxCell id="8wa_8uIsnBs-MFd-Suok-175" value="&lt;div&gt;&lt;span style=&quot;font-size: 10px; background-color: light-dark(rgb(255, 255, 255), rgb(18, 18, 18)); color: light-dark(rgb(31, 35, 40), rgb(205, 208, 212)); font-family: -apple-system, BlinkMacSystemFont, &amp;quot;Segoe UI&amp;quot;, &amp;quot;Noto Sans&amp;quot;, Helvetica, Arial, sans-serif, &amp;quot;Apple Color Emoji&amp;quot;, &amp;quot;Segoe UI Emoji&amp;quot;; text-align: left;&quot;&gt;&amp;nbsp;Update Learning Materials&amp;nbsp;&lt;/span&gt;&lt;/div&gt;" style="rounded=0;whiteSpace=wrap;html=1;movable=0;resizable=0;rotatable=0;deletable=0;editable=0;locked=1;connectable=0;container=0;" parent="1" vertex="1">
          <mxGeometry x="68.00000000000023" y="688.0014285714286" width="80.00000000000001" height="50" as="geometry" />
        </mxCell>
        <mxCell id="8wa_8uIsnBs-MFd-Suok-176" value="&lt;font size=&quot;1&quot;&gt;6&lt;/font&gt;" style="text;html=1;align=center;verticalAlign=middle;whiteSpace=wrap;rounded=0;container=0;movable=0;resizable=0;rotatable=0;deletable=0;editable=0;locked=1;connectable=0;" parent="1" vertex="1">
          <mxGeometry x="136.5009852997805" y="719.8306349206349" width="11.497882171736622" height="13.650793650793648" as="geometry" />
        </mxCell>
        <mxCell id="8wa_8uIsnBs-MFd-Suok-270" style="edgeStyle=orthogonalEdgeStyle;rounded=0;orthogonalLoop=1;jettySize=auto;html=1;entryX=0;entryY=0.5;entryDx=0;entryDy=0;movable=0;resizable=0;rotatable=0;deletable=0;editable=0;locked=1;connectable=0;" parent="1" source="8wa_8uIsnBs-MFd-Suok-147" target="8wa_8uIsnBs-MFd-Suok-245" edge="1">
          <mxGeometry relative="1" as="geometry" />
        </mxCell>
        <mxCell id="8wa_8uIsnBs-MFd-Suok-273" style="edgeStyle=orthogonalEdgeStyle;rounded=1;orthogonalLoop=1;jettySize=auto;html=1;entryX=0;entryY=0.75;entryDx=0;entryDy=0;curved=0;movable=0;resizable=0;rotatable=0;deletable=0;editable=0;locked=1;connectable=0;" parent="1" source="8wa_8uIsnBs-MFd-Suok-147" target="8wa_8uIsnBs-MFd-Suok-175" edge="1">
          <mxGeometry relative="1" as="geometry" />
        </mxCell>
        <mxCell id="8wa_8uIsnBs-MFd-Suok-147" value="&lt;span style=&quot;box-sizing: border-box; color: rgb(31, 35, 40); font-family: -apple-system, BlinkMacSystemFont, &amp;quot;Segoe UI&amp;quot;, &amp;quot;Noto Sans&amp;quot;, Helvetica, Arial, sans-serif, &amp;quot;Apple Color Emoji&amp;quot;, &amp;quot;Segoe UI Emoji&amp;quot;; text-align: left; background-color: rgb(255, 255, 255);&quot;&gt;&lt;font style=&quot;font-size: 10px;&quot;&gt;&amp;nbsp;Adapt Learning Path&amp;nbsp;&lt;/font&gt;&lt;/span&gt;" style="rounded=0;whiteSpace=wrap;html=1;movable=0;resizable=0;rotatable=0;deletable=0;editable=0;locked=1;connectable=0;container=0;" parent="1" vertex="1">
          <mxGeometry x="-96" y="560.0014285714286" width="80.00000000000001" height="50" as="geometry" />
        </mxCell>
        <mxCell id="8wa_8uIsnBs-MFd-Suok-148" value="&lt;font size=&quot;1&quot;&gt;5&lt;/font&gt;" style="text;html=1;align=center;verticalAlign=middle;whiteSpace=wrap;rounded=0;container=0;movable=0;resizable=0;rotatable=0;deletable=0;editable=0;locked=1;connectable=0;" parent="1" vertex="1">
          <mxGeometry x="-27.499014700219732" y="591.8306349206349" width="11.497882171736622" height="13.650793650793648" as="geometry" />
        </mxCell>
        <mxCell id="8wa_8uIsnBs-MFd-Suok-262" style="edgeStyle=orthogonalEdgeStyle;rounded=0;orthogonalLoop=1;jettySize=auto;html=1;exitX=1;exitY=0.5;exitDx=0;exitDy=0;movable=0;resizable=0;rotatable=0;deletable=0;editable=0;locked=1;connectable=0;" parent="1" source="8wa_8uIsnBs-MFd-Suok-80" target="8wa_8uIsnBs-MFd-Suok-238" edge="1">
          <mxGeometry relative="1" as="geometry" />
        </mxCell>
        <mxCell id="8wa_8uIsnBs-MFd-Suok-80" value="&lt;span style=&quot;box-sizing: border-box; color: rgb(31, 35, 40); font-family: -apple-system, BlinkMacSystemFont, &amp;quot;Segoe UI&amp;quot;, &amp;quot;Noto Sans&amp;quot;, Helvetica, Arial, sans-serif, &amp;quot;Apple Color Emoji&amp;quot;, &amp;quot;Segoe UI Emoji&amp;quot;; text-align: left; background-color: rgb(255, 255, 255);&quot;&gt;&lt;font style=&quot;font-size: 10px;&quot;&gt;&amp;nbsp;Encourage Student&amp;nbsp;&lt;/font&gt;&lt;/span&gt;" style="rounded=0;whiteSpace=wrap;html=1;movable=0;resizable=0;rotatable=0;deletable=0;editable=0;locked=1;connectable=0;container=0;" parent="1" vertex="1">
          <mxGeometry x="-391" y="353.6514285714285" width="80.00000000000001" height="50" as="geometry" />
        </mxCell>
        <mxCell id="8wa_8uIsnBs-MFd-Suok-140" value="&lt;font size=&quot;1&quot;&gt;3&lt;/font&gt;" style="text;html=1;align=center;verticalAlign=middle;whiteSpace=wrap;rounded=0;container=0;movable=0;resizable=0;rotatable=0;deletable=0;editable=0;locked=1;connectable=0;" parent="1" vertex="1">
          <mxGeometry x="-327.49901470021996" y="386.3506349206349" width="11.497882171736622" height="13.650793650793648" as="geometry" />
        </mxCell>
        <mxCell id="8wa_8uIsnBs-MFd-Suok-178" style="edgeStyle=orthogonalEdgeStyle;rounded=0;orthogonalLoop=1;jettySize=auto;html=1;exitX=0.5;exitY=1;exitDx=0;exitDy=0;movable=0;resizable=0;rotatable=0;deletable=0;editable=0;locked=1;connectable=0;" parent="1" source="8wa_8uIsnBs-MFd-Suok-80" target="8wa_8uIsnBs-MFd-Suok-80" edge="1">
          <mxGeometry relative="1" as="geometry" />
        </mxCell>
        <mxCell id="8wa_8uIsnBs-MFd-Suok-49" value="&lt;span style=&quot;box-sizing: border-box; color: rgb(31, 35, 40); font-family: -apple-system, BlinkMacSystemFont, &amp;quot;Segoe UI&amp;quot;, &amp;quot;Noto Sans&amp;quot;, Helvetica, Arial, sans-serif, &amp;quot;Apple Color Emoji&amp;quot;, &amp;quot;Segoe UI Emoji&amp;quot;; text-align: left; background-color: rgb(255, 255, 255);&quot;&gt;&lt;font style=&quot;font-size: 10px;&quot;&gt;Receive Learning Materials&lt;/font&gt;&lt;/span&gt;" style="rounded=0;whiteSpace=wrap;html=1;movable=0;resizable=0;rotatable=0;deletable=0;editable=0;locked=1;connectable=0;container=0;" parent="1" vertex="1">
          <mxGeometry x="-706.0014925373134" y="120" width="80" height="50.00000000000001" as="geometry" />
        </mxCell>
        <mxCell id="8wa_8uIsnBs-MFd-Suok-78" value="&lt;font style=&quot;font-size: 9px;&quot;&gt;1&lt;/font&gt;" style="text;html=1;align=center;verticalAlign=middle;whiteSpace=wrap;rounded=0;container=0;movable=0;resizable=0;rotatable=0;deletable=0;editable=0;locked=1;connectable=0;" parent="1" vertex="1">
          <mxGeometry x="-638.5419446143707" y="153.61904761904762" width="11.499319407008086" height="16.380952380952383" as="geometry" />
        </mxCell>
        <mxCell id="8wa_8uIsnBs-MFd-Suok-250" style="edgeStyle=orthogonalEdgeStyle;rounded=0;orthogonalLoop=1;jettySize=auto;html=1;entryX=0;entryY=0.5;entryDx=0;entryDy=0;movable=0;resizable=0;rotatable=0;deletable=0;editable=0;locked=1;connectable=0;" parent="1" source="8wa_8uIsnBs-MFd-Suok-227" target="8wa_8uIsnBs-MFd-Suok-82" edge="1">
          <mxGeometry relative="1" as="geometry" />
        </mxCell>
        <mxCell id="8wa_8uIsnBs-MFd-Suok-267" style="edgeStyle=orthogonalEdgeStyle;rounded=1;orthogonalLoop=1;jettySize=auto;html=1;entryX=0.25;entryY=0;entryDx=0;entryDy=0;exitX=1;exitY=0.5;exitDx=0;exitDy=0;curved=0;movable=0;resizable=0;rotatable=0;deletable=0;editable=0;locked=1;connectable=0;" parent="1" source="8wa_8uIsnBs-MFd-Suok-227" target="8wa_8uIsnBs-MFd-Suok-81" edge="1">
          <mxGeometry relative="1" as="geometry">
            <Array as="points">
              <mxPoint x="-566" y="265" />
              <mxPoint x="-566" y="430" />
              <mxPoint x="-226" y="430" />
            </Array>
          </mxGeometry>
        </mxCell>
        <mxCell id="8wa_8uIsnBs-MFd-Suok-227" value="&lt;font style=&quot;font-size: 9px;&quot;&gt;Student Profiles&lt;/font&gt;" style="text;html=1;align=left;verticalAlign=middle;whiteSpace=wrap;rounded=0;container=0;movable=0;resizable=0;rotatable=0;deletable=0;editable=0;locked=1;connectable=0;" parent="1" vertex="1">
          <mxGeometry x="-656.0014925373134" y="256.5" width="75" height="17" as="geometry" />
        </mxCell>
        <mxCell id="8wa_8uIsnBs-MFd-Suok-254" style="edgeStyle=orthogonalEdgeStyle;rounded=0;orthogonalLoop=1;jettySize=auto;html=1;entryX=0.5;entryY=1;entryDx=0;entryDy=0;movable=0;resizable=0;rotatable=0;deletable=0;editable=0;locked=1;connectable=0;" parent="1" source="8wa_8uIsnBs-MFd-Suok-252" target="8wa_8uIsnBs-MFd-Suok-82" edge="1">
          <mxGeometry relative="1" as="geometry" />
        </mxCell>
        <mxCell id="8wa_8uIsnBs-MFd-Suok-252" value="&lt;span style=&quot;color: rgb(31, 35, 40); font-family: -apple-system, BlinkMacSystemFont, &amp;quot;Segoe UI&amp;quot;, &amp;quot;Noto Sans&amp;quot;, Helvetica, Arial, sans-serif, &amp;quot;Apple Color Emoji&amp;quot;, &amp;quot;Segoe UI Emoji&amp;quot;; text-align: left; background-color: rgb(255, 255, 255);&quot;&gt;&lt;font style=&quot;font-size: 9px;&quot;&gt;Emotional Pedagogical Agent&lt;/font&gt;&lt;/span&gt;" style="text;html=1;align=center;verticalAlign=middle;whiteSpace=wrap;rounded=0;container=0;movable=0;resizable=0;rotatable=0;deletable=0;editable=0;locked=1;connectable=0;" parent="1" vertex="1">
          <mxGeometry x="-566.75" y="320" width="121.5" height="20" as="geometry" />
        </mxCell>
        <mxCell id="8wa_8uIsnBs-MFd-Suok-258" style="edgeStyle=orthogonalEdgeStyle;rounded=1;orthogonalLoop=1;jettySize=auto;html=1;exitX=0.5;exitY=1;exitDx=0;exitDy=0;entryX=0.196;entryY=0.016;entryDx=0;entryDy=0;entryPerimeter=0;curved=0;movable=0;resizable=0;rotatable=0;deletable=0;editable=0;locked=1;connectable=0;" parent="1" source="8wa_8uIsnBs-MFd-Suok-199" target="8wa_8uIsnBs-MFd-Suok-80" edge="1">
          <mxGeometry relative="1" as="geometry">
            <Array as="points">
              <mxPoint x="-666" y="100" />
              <mxPoint x="-375" y="100" />
            </Array>
          </mxGeometry>
        </mxCell>
        <mxCell id="8wa_8uIsnBs-MFd-Suok-269" style="edgeStyle=orthogonalEdgeStyle;rounded=1;orthogonalLoop=1;jettySize=auto;html=1;entryX=0.007;entryY=0.344;entryDx=0;entryDy=0;entryPerimeter=0;curved=0;movable=0;resizable=0;rotatable=0;deletable=0;editable=0;locked=1;connectable=0;" parent="1" source="8wa_8uIsnBs-MFd-Suok-81" target="8wa_8uIsnBs-MFd-Suok-147" edge="1">
          <mxGeometry relative="1" as="geometry" />
        </mxCell>
        <mxCell id="8wa_8uIsnBs-MFd-Suok-271" style="edgeStyle=orthogonalEdgeStyle;rounded=1;orthogonalLoop=1;jettySize=auto;html=1;exitX=1;exitY=0.5;exitDx=0;exitDy=0;entryX=0.25;entryY=0;entryDx=0;entryDy=0;curved=0;movable=0;resizable=0;rotatable=0;deletable=0;editable=0;locked=1;connectable=0;" parent="1" source="8wa_8uIsnBs-MFd-Suok-193" target="8wa_8uIsnBs-MFd-Suok-147" edge="1">
          <mxGeometry relative="1" as="geometry">
            <Array as="points">
              <mxPoint x="-726" y="140" />
              <mxPoint x="-726" y="450" />
              <mxPoint x="-76" y="450" />
            </Array>
          </mxGeometry>
        </mxCell>
        <mxCell id="8wa_8uIsnBs-MFd-Suok-276" style="edgeStyle=orthogonalEdgeStyle;rounded=0;orthogonalLoop=1;jettySize=auto;html=1;entryX=0;entryY=0.5;entryDx=0;entryDy=0;movable=0;resizable=0;rotatable=0;deletable=0;editable=0;locked=1;connectable=0;" parent="1" source="8wa_8uIsnBs-MFd-Suok-175" target="8wa_8uIsnBs-MFd-Suok-243" edge="1">
          <mxGeometry relative="1" as="geometry" />
        </mxCell>
        <mxCell id="8wa_8uIsnBs-MFd-Suok-4" value="" style="rounded=0;whiteSpace=wrap;html=1;flipH=1;movable=0;resizable=0;rotatable=0;deletable=0;editable=0;locked=1;connectable=0;" parent="1" vertex="1">
          <mxGeometry x="-1640.0044776119403" y="40" width="679.1044776119403" height="479.9999999999999" as="geometry" />
        </mxCell>
        <mxCell id="8wa_8uIsnBs-MFd-Suok-5" value="" style="endArrow=none;html=1;rounded=0;movable=0;resizable=0;rotatable=0;deletable=0;editable=0;locked=1;connectable=0;entryX=0;entryY=0.914;entryDx=0;entryDy=0;entryPerimeter=0;" parent="1" target="8wa_8uIsnBs-MFd-Suok-4" edge="1">
          <mxGeometry width="50" height="50" relative="1" as="geometry">
            <mxPoint x="-1640.0044776119403" y="478.8571428571428" as="sourcePoint" />
            <mxPoint x="-993.2880597014927" y="478.8571428571428" as="targetPoint" />
          </mxGeometry>
        </mxCell>
        <mxCell id="8wa_8uIsnBs-MFd-Suok-9" value="&lt;font style=&quot;font-size: 11px;&quot;&gt;PURPOSE: Enhance the interaction between educators and learners by developing an EPA that integrates AI features into e-learning environments.&lt;/font&gt;" style="text;html=1;align=left;verticalAlign=middle;whiteSpace=wrap;rounded=0;movable=0;resizable=0;rotatable=0;deletable=0;editable=0;locked=1;connectable=0;" parent="1" vertex="1">
          <mxGeometry x="-1598.2134328358209" y="382.85714285714283" width="574.6268656716418" height="41.14285714285714" as="geometry" />
        </mxCell>
        <mxCell id="8wa_8uIsnBs-MFd-Suok-10" value="" style="endArrow=none;html=1;rounded=0;movable=0;resizable=0;rotatable=0;deletable=0;editable=0;locked=1;connectable=0;" parent="1" edge="1">
          <mxGeometry width="50" height="50" relative="1" as="geometry">
            <mxPoint x="-1117.6164179104476" y="519.9999999999999" as="sourcePoint" />
            <mxPoint x="-1117.6164179104476" y="478.8571428571428" as="targetPoint" />
          </mxGeometry>
        </mxCell>
        <mxCell id="8wa_8uIsnBs-MFd-Suok-11" value="&lt;span style=&quot;background-color: rgb(255, 255, 255); color: rgb(31, 35, 40); font-family: -apple-system, BlinkMacSystemFont, &amp;quot;Segoe UI&amp;quot;, &amp;quot;Noto Sans&amp;quot;, Helvetica, Arial, sans-serif, &amp;quot;Apple Color Emoji&amp;quot;, &amp;quot;Segoe UI Emoji&amp;quot;; text-align: start;&quot;&gt;&lt;font style=&quot;&quot;&gt;Manage Learning Experience&lt;/font&gt;&lt;/span&gt;" style="rounded=0;whiteSpace=wrap;html=1;movable=0;resizable=0;rotatable=0;deletable=0;editable=0;locked=1;connectable=0;" parent="1" vertex="1">
          <mxGeometry x="-1393.823880597015" y="179.88571428571424" width="146.2686567164179" height="89.14285714285714" as="geometry" />
        </mxCell>
        <mxCell id="8wa_8uIsnBs-MFd-Suok-12" value="&lt;font style=&quot;font-size: 11px;&quot;&gt;VIEWPOINT:&amp;nbsp;&amp;nbsp;Viewpoint: System Designer/Project Manager&lt;/font&gt;" style="text;html=1;align=left;verticalAlign=middle;whiteSpace=wrap;rounded=0;movable=0;resizable=0;rotatable=0;deletable=0;editable=0;locked=1;connectable=0;" parent="1" vertex="1">
          <mxGeometry x="-1598.2134328358209" y="424" width="313.4328358208955" height="41.14285714285714" as="geometry" />
        </mxCell>
        <mxCell id="8wa_8uIsnBs-MFd-Suok-13" value="&lt;font style=&quot;font-size: 9px;&quot;&gt;0&lt;/font&gt;" style="text;html=1;align=center;verticalAlign=middle;whiteSpace=wrap;rounded=0;movable=0;resizable=0;rotatable=0;deletable=0;editable=0;locked=1;connectable=0;" parent="1" vertex="1">
          <mxGeometry x="-1268.4507462686568" y="241.60000000000002" width="20.8955223880597" height="27.428571428571423" as="geometry" />
        </mxCell>
        <mxCell id="8wa_8uIsnBs-MFd-Suok-14" value="" style="endArrow=classic;html=1;rounded=0;movable=0;resizable=0;rotatable=0;deletable=0;editable=0;locked=1;connectable=0;" parent="1" edge="1">
          <mxGeometry width="50" height="50" relative="1" as="geometry">
            <mxPoint x="-1482.6298507462686" y="220.24685714285715" as="sourcePoint" />
            <mxPoint x="-1393.823880597015" y="220.24685714285715" as="targetPoint" />
          </mxGeometry>
        </mxCell>
        <mxCell id="8wa_8uIsnBs-MFd-Suok-15" value="" style="endArrow=classic;html=1;rounded=0;movable=0;resizable=0;rotatable=0;deletable=0;editable=0;locked=1;connectable=0;" parent="1" edge="1">
          <mxGeometry width="50" height="50" relative="1" as="geometry">
            <mxPoint x="-1482.6298507462686" y="247.67542857142854" as="sourcePoint" />
            <mxPoint x="-1393.823880597015" y="247.67542857142854" as="targetPoint" />
          </mxGeometry>
        </mxCell>
        <mxCell id="8wa_8uIsnBs-MFd-Suok-16" value="" style="endArrow=classic;html=1;rounded=0;movable=0;resizable=0;rotatable=0;deletable=0;editable=0;locked=1;connectable=0;" parent="1" edge="1">
          <mxGeometry width="50" height="50" relative="1" as="geometry">
            <mxPoint x="-1482.6298507462686" y="193.60000000000002" as="sourcePoint" />
            <mxPoint x="-1393.823880597015" y="193.60000000000002" as="targetPoint" />
          </mxGeometry>
        </mxCell>
        <mxCell id="8wa_8uIsnBs-MFd-Suok-17" value="" style="endArrow=classic;html=1;rounded=0;movable=0;resizable=0;rotatable=0;deletable=0;editable=0;locked=1;connectable=0;" parent="1" edge="1">
          <mxGeometry width="50" height="50" relative="1" as="geometry">
            <mxPoint x="-1383.3761194029853" y="131.88571428571427" as="sourcePoint" />
            <mxPoint x="-1383.3761194029853" y="179.88571428571424" as="targetPoint" />
          </mxGeometry>
        </mxCell>
        <mxCell id="8wa_8uIsnBs-MFd-Suok-18" value="&lt;font&gt;Learning materials&lt;/font&gt;" style="text;html=1;align=center;verticalAlign=middle;whiteSpace=wrap;rounded=0;fontSize=9;movable=0;resizable=0;rotatable=0;deletable=0;editable=0;locked=1;connectable=0;" parent="1" vertex="1">
          <mxGeometry x="-1571.4358208955225" y="179.88571428571424" width="83.5820895522388" height="13.714285714285712" as="geometry" />
        </mxCell>
        <mxCell id="8wa_8uIsnBs-MFd-Suok-19" value="&lt;div&gt;&lt;font&gt;Emotional feedback&lt;/font&gt;&lt;/div&gt;&lt;div&gt;&lt;br&gt;&lt;/div&gt;" style="text;html=1;align=center;verticalAlign=middle;whiteSpace=wrap;rounded=0;fontSize=9;movable=0;resizable=0;rotatable=0;deletable=0;editable=0;locked=1;connectable=0;" parent="1" vertex="1">
          <mxGeometry x="-1581.8835820895522" y="221.02857142857144" width="94.02985074626864" as="geometry" />
        </mxCell>
        <mxCell id="8wa_8uIsnBs-MFd-Suok-20" value="&lt;div&gt;&lt;span style=&quot;background-color: transparent; color: light-dark(rgb(0, 0, 0), rgb(255, 255, 255));&quot;&gt;&lt;font&gt;Student performance data&lt;/font&gt;&lt;/span&gt;&lt;/div&gt;&lt;div&gt;&lt;span style=&quot;background-color: transparent; color: light-dark(rgb(0, 0, 0), rgb(255, 255, 255));&quot;&gt;&lt;br&gt;&lt;/span&gt;&lt;/div&gt;" style="text;html=1;align=center;verticalAlign=middle;whiteSpace=wrap;rounded=0;movable=0;resizable=0;rotatable=0;deletable=0;editable=0;locked=1;connectable=0;fontSize=9;" parent="1" vertex="1">
          <mxGeometry x="-1602.779104477612" y="248.45714285714286" width="114.92537313432837" as="geometry" />
        </mxCell>
        <mxCell id="8wa_8uIsnBs-MFd-Suok-21" value="" style="endArrow=classic;html=1;rounded=0;movable=0;resizable=0;rotatable=0;deletable=0;editable=0;locked=1;connectable=0;" parent="1" edge="1">
          <mxGeometry width="50" height="50" relative="1" as="geometry">
            <mxPoint x="-1247.555223880597" y="193.60000000000002" as="sourcePoint" />
            <mxPoint x="-1158.7492537313433" y="193.60000000000002" as="targetPoint" />
          </mxGeometry>
        </mxCell>
        <mxCell id="8wa_8uIsnBs-MFd-Suok-22" value="" style="endArrow=classic;html=1;rounded=0;movable=0;resizable=0;rotatable=0;deletable=0;editable=0;locked=1;connectable=0;" parent="1" edge="1">
          <mxGeometry width="50" height="50" relative="1" as="geometry">
            <mxPoint x="-1247.555223880597" y="220.24685714285715" as="sourcePoint" />
            <mxPoint x="-1158.7492537313433" y="220.24685714285715" as="targetPoint" />
          </mxGeometry>
        </mxCell>
        <mxCell id="8wa_8uIsnBs-MFd-Suok-23" value="" style="endArrow=classic;html=1;rounded=0;movable=0;resizable=0;rotatable=0;deletable=0;editable=0;locked=1;connectable=0;" parent="1" edge="1">
          <mxGeometry width="50" height="50" relative="1" as="geometry">
            <mxPoint x="-1247.555223880597" y="248.45714285714286" as="sourcePoint" />
            <mxPoint x="-1158.7492537313433" y="248.45714285714286" as="targetPoint" />
          </mxGeometry>
        </mxCell>
        <mxCell id="8wa_8uIsnBs-MFd-Suok-24" value="&lt;font style=&quot;font-size: 9px;&quot;&gt;Updated learning materials&lt;/font&gt;" style="text;html=1;align=center;verticalAlign=middle;whiteSpace=wrap;rounded=0;movable=0;resizable=0;rotatable=0;deletable=0;editable=0;locked=1;connectable=0;" parent="1" vertex="1">
          <mxGeometry x="-1149.6074626865673" y="173.02857142857138" width="120.1492537313433" height="34.28571428571428" as="geometry" />
        </mxCell>
        <mxCell id="8wa_8uIsnBs-MFd-Suok-25" value="&lt;font&gt;Adapted learning path&lt;/font&gt;" style="text;html=1;align=center;verticalAlign=middle;whiteSpace=wrap;rounded=0;fontSize=9;movable=0;resizable=0;rotatable=0;deletable=0;editable=0;locked=1;connectable=0;" parent="1" vertex="1">
          <mxGeometry x="-1149.6074626865673" y="207.3142857142857" width="104.4776119402985" height="27.428571428571423" as="geometry" />
        </mxCell>
        <mxCell id="8wa_8uIsnBs-MFd-Suok-26" value="&lt;font&gt;Student progress reports&lt;/font&gt;" style="text;html=1;align=center;verticalAlign=middle;whiteSpace=wrap;rounded=0;fontSize=9;movable=0;resizable=0;rotatable=0;deletable=0;editable=0;locked=1;connectable=0;" parent="1" vertex="1">
          <mxGeometry x="-1149.6074626865673" y="227.88571428571424" width="114.92537313432837" height="41.14285714285714" as="geometry" />
        </mxCell>
        <mxCell id="8wa_8uIsnBs-MFd-Suok-27" value="" style="endArrow=classic;html=1;rounded=0;movable=0;resizable=0;rotatable=0;deletable=0;editable=0;locked=1;connectable=0;" parent="1" edge="1">
          <mxGeometry width="50" height="50" relative="1" as="geometry">
            <mxPoint x="-1347.1119402985075" y="127.77142857142856" as="sourcePoint" />
            <mxPoint x="-1347.1119402985075" y="179.88571428571424" as="targetPoint" />
          </mxGeometry>
        </mxCell>
        <mxCell id="8wa_8uIsnBs-MFd-Suok-28" value="" style="endArrow=classic;html=1;rounded=0;movable=0;resizable=0;rotatable=0;deletable=0;editable=0;locked=1;connectable=0;" parent="1" edge="1">
          <mxGeometry width="50" height="50" relative="1" as="geometry">
            <mxPoint x="-1310.2417910447762" y="127.77142857142856" as="sourcePoint" />
            <mxPoint x="-1310.2417910447762" y="179.88571428571424" as="targetPoint" />
          </mxGeometry>
        </mxCell>
        <mxCell id="8wa_8uIsnBs-MFd-Suok-29" value="" style="endArrow=classic;html=1;rounded=0;movable=0;resizable=0;rotatable=0;deletable=0;editable=0;locked=1;connectable=0;" parent="1" edge="1">
          <mxGeometry width="50" height="50" relative="1" as="geometry">
            <mxPoint x="-1278.8985074626867" y="127.08571428571427" as="sourcePoint" />
            <mxPoint x="-1278.8985074626867" y="179.2" as="targetPoint" />
          </mxGeometry>
        </mxCell>
        <mxCell id="8wa_8uIsnBs-MFd-Suok-30" value="&lt;font&gt;Educational standards&lt;/font&gt;" style="text;html=1;align=center;verticalAlign=middle;whiteSpace=wrap;rounded=0;fontSize=9;movable=0;resizable=0;rotatable=0;deletable=0;editable=0;locked=1;connectable=0;" parent="1" vertex="1">
          <mxGeometry x="-1417.8537313432837" y="83.88571428571427" width="41.7910447761194" height="41.14285714285714" as="geometry" />
        </mxCell>
        <mxCell id="8wa_8uIsnBs-MFd-Suok-31" value="&lt;font&gt;Course objectives&lt;/font&gt;" style="text;html=1;align=center;verticalAlign=middle;whiteSpace=wrap;rounded=0;fontSize=9;movable=0;resizable=0;rotatable=0;deletable=0;editable=0;locked=1;connectable=0;" parent="1" vertex="1">
          <mxGeometry x="-1368.7492537313433" y="81.14285714285714" width="41.7910447761194" height="41.14285714285714" as="geometry" />
        </mxCell>
        <mxCell id="8wa_8uIsnBs-MFd-Suok-32" value="&lt;div&gt;&lt;font&gt;Student profiles&lt;/font&gt;&lt;/div&gt;&lt;div&gt;&lt;br&gt;&lt;/div&gt;" style="text;html=1;align=center;verticalAlign=middle;whiteSpace=wrap;rounded=0;fontSize=9;movable=0;resizable=0;rotatable=0;deletable=0;editable=0;locked=1;connectable=0;" parent="1" vertex="1">
          <mxGeometry x="-1324.868656716418" y="98.97142857142856" width="31.34328358208955" height="20.57142857142857" as="geometry" />
        </mxCell>
        <mxCell id="8wa_8uIsnBs-MFd-Suok-33" value="&lt;font&gt;Authentication protocols&lt;/font&gt;" style="text;html=1;align=center;verticalAlign=middle;whiteSpace=wrap;rounded=0;fontSize=9;movable=0;resizable=0;rotatable=0;deletable=0;editable=0;locked=1;connectable=0;" parent="1" vertex="1">
          <mxGeometry x="-1282.2940298507463" y="91.42857142857142" width="41.7910447761194" height="20.57142857142857" as="geometry" />
        </mxCell>
        <mxCell id="8wa_8uIsnBs-MFd-Suok-34" value="" style="endArrow=classic;html=1;rounded=0;movable=0;resizable=0;rotatable=0;deletable=0;editable=0;locked=1;connectable=0;" parent="1" edge="1">
          <mxGeometry width="50" height="50" relative="1" as="geometry">
            <mxPoint x="-1368.7492537313433" y="317.02857142857135" as="sourcePoint" />
            <mxPoint x="-1368.7492537313433" y="269.02857142857135" as="targetPoint" />
          </mxGeometry>
        </mxCell>
        <mxCell id="8wa_8uIsnBs-MFd-Suok-35" value="" style="endArrow=classic;html=1;rounded=0;movable=0;resizable=0;rotatable=0;deletable=0;editable=0;locked=1;connectable=0;" parent="1" edge="1">
          <mxGeometry width="50" height="50" relative="1" as="geometry">
            <mxPoint x="-1324.868656716418" y="321.1428571428571" as="sourcePoint" />
            <mxPoint x="-1324.868656716418" y="269.02857142857135" as="targetPoint" />
          </mxGeometry>
        </mxCell>
        <mxCell id="8wa_8uIsnBs-MFd-Suok-36" value="" style="endArrow=classic;html=1;rounded=0;movable=0;resizable=0;rotatable=0;deletable=0;editable=0;locked=1;connectable=0;" parent="1" edge="1">
          <mxGeometry width="50" height="50" relative="1" as="geometry">
            <mxPoint x="-1285.1671641791045" y="321.1428571428571" as="sourcePoint" />
            <mxPoint x="-1285.1671641791045" y="269.02857142857135" as="targetPoint" />
          </mxGeometry>
        </mxCell>
        <mxCell id="8wa_8uIsnBs-MFd-Suok-37" value="&lt;font style=&quot;font-size: 9px;&quot;&gt;Emotional Pedagogical Agent (EPA)&lt;/font&gt;" style="text;html=1;align=center;verticalAlign=middle;whiteSpace=wrap;rounded=0;movable=0;resizable=0;rotatable=0;deletable=0;editable=0;locked=1;connectable=0;" parent="1" vertex="1">
          <mxGeometry x="-1417.8506666666667" y="325.16999999999996" width="68.71200000000002" height="41.13999999999999" as="geometry" />
        </mxCell>
        <mxCell id="8wa_8uIsnBs-MFd-Suok-38" value="&lt;font style=&quot;font-size: 9px;&quot;&gt;E-learning platforms&lt;/font&gt;" style="text;html=1;align=center;verticalAlign=middle;whiteSpace=wrap;rounded=0;movable=0;resizable=0;rotatable=0;deletable=0;editable=0;locked=1;connectable=0;" parent="1" vertex="1">
          <mxGeometry x="-1352.9" y="325.16999999999996" width="52.62133333333333" height="29.999999999999993" as="geometry" />
        </mxCell>
        <mxCell id="8wa_8uIsnBs-MFd-Suok-39" value="&lt;font style=&quot;font-size: 9px;&quot;&gt;AI algorithms&lt;/font&gt;" style="text;html=1;align=center;verticalAlign=middle;whiteSpace=wrap;rounded=0;movable=0;resizable=0;rotatable=0;deletable=0;editable=0;locked=1;connectable=0;" parent="1" vertex="1">
          <mxGeometry x="-1293.5213333333334" y="325.16999999999996" width="28" height="29.999999999999993" as="geometry" />
        </mxCell>
        <mxCell id="8wa_8uIsnBs-MFd-Suok-79" value="&lt;font style=&quot;font-size: 11px;&quot;&gt;NO.:&amp;nbsp; &amp;nbsp; &amp;nbsp;P1&lt;/font&gt;" style="text;html=1;align=left;verticalAlign=middle;whiteSpace=wrap;rounded=0;movable=0;resizable=0;rotatable=0;deletable=0;editable=0;locked=1;connectable=0;" parent="1" vertex="1">
          <mxGeometry x="-1110.9" y="478.86" width="140" height="41.14" as="geometry" />
        </mxCell>
        <mxCell id="8wa_8uIsnBs-MFd-Suok-7" value="&lt;font style=&quot;font-size: 11px;&quot;&gt;&amp;nbsp;NODE:&lt;span style=&quot;background-color: transparent; color: light-dark(rgb(0, 0, 0), rgb(255, 255, 255));&quot;&gt;&amp;nbsp; &amp;nbsp;A-0&lt;/span&gt;&lt;/font&gt;" style="text;html=1;align=left;verticalAlign=middle;whiteSpace=wrap;rounded=0;movable=0;resizable=0;rotatable=0;deletable=0;editable=0;locked=1;connectable=0;" parent="1" vertex="1">
          <mxGeometry x="-1616" y="478.86" width="109.1" height="41.14" as="geometry" />
        </mxCell>
        <mxCell id="8wa_8uIsnBs-MFd-Suok-6" value="" style="endArrow=none;html=1;rounded=0;exitX=1;exitY=1;exitDx=0;exitDy=0;entryX=1;entryY=0;entryDx=0;entryDy=0;movable=0;resizable=0;rotatable=0;deletable=0;editable=0;locked=1;connectable=0;" parent="1" source="8wa_8uIsnBs-MFd-Suok-7" target="8wa_8uIsnBs-MFd-Suok-7" edge="1">
          <mxGeometry width="50" height="50" relative="1" as="geometry">
            <mxPoint x="-1306.7611940298507" y="547.4285714285713" as="sourcePoint" />
            <mxPoint x="-1335.0746268656717" y="463.33257142857144" as="targetPoint" />
          </mxGeometry>
        </mxCell>
        <mxCell id="8wa_8uIsnBs-MFd-Suok-8" value="&lt;font style=&quot;font-size: 11px;&quot;&gt;TITLE:&amp;nbsp; &amp;nbsp; &amp;nbsp; &amp;nbsp; &amp;nbsp; Extract from Level 0:&amp;nbsp; &lt;/font&gt;&lt;strong style=&quot;font-size: 11px; background-color: transparent; color: light-dark(rgb(0, 0, 0), rgb(255, 255, 255));&quot;&gt;Emotional Pedagogical Agent (EPA)&lt;/strong&gt;&lt;span style=&quot;font-size: 11px; background-color: transparent; color: light-dark(rgb(0, 0, 0), rgb(255, 255, 255));&quot;&gt;&amp;nbsp;&lt;/span&gt;" style="text;html=1;align=left;verticalAlign=middle;whiteSpace=wrap;rounded=0;movable=0;resizable=0;rotatable=0;deletable=0;editable=0;locked=1;connectable=0;" parent="1" vertex="1">
          <mxGeometry x="-1494" y="485.71" width="373.1" height="27.43" as="geometry" />
        </mxCell>
        <mxCell id="-AfhXHmDIBszbEUUbrqQ-1" value="" style="rounded=0;whiteSpace=wrap;html=1;flipH=1;movable=1;resizable=1;rotatable=1;deletable=1;editable=1;locked=0;connectable=1;" vertex="1" parent="1">
          <mxGeometry x="419.9955223880597" y="40" width="679.1044776119403" height="479.9999999999999" as="geometry" />
        </mxCell>
        <mxCell id="-AfhXHmDIBszbEUUbrqQ-2" value="" style="endArrow=none;html=1;rounded=0;movable=1;resizable=1;rotatable=1;deletable=1;editable=1;locked=0;connectable=1;entryX=0;entryY=0.914;entryDx=0;entryDy=0;entryPerimeter=0;" edge="1" parent="1" target="-AfhXHmDIBszbEUUbrqQ-1">
          <mxGeometry width="50" height="50" relative="1" as="geometry">
            <mxPoint x="419.9955223880597" y="478.8571428571428" as="sourcePoint" />
            <mxPoint x="1066.7119402985072" y="478.8571428571428" as="targetPoint" />
          </mxGeometry>
        </mxCell>
        <mxCell id="-AfhXHmDIBszbEUUbrqQ-3" value="&lt;font style=&quot;font-size: 11px;&quot;&gt;PURPOSE: To represent the reception and initial processing of learning materials.&lt;/font&gt;" style="text;html=1;align=left;verticalAlign=middle;whiteSpace=wrap;rounded=0;movable=1;resizable=1;rotatable=1;deletable=1;editable=1;locked=0;connectable=1;" vertex="1" parent="1">
          <mxGeometry x="452.00656716417916" y="423.9971428571428" width="574.6268656716418" height="41.14285714285714" as="geometry" />
        </mxCell>
        <mxCell id="-AfhXHmDIBszbEUUbrqQ-4" value="" style="endArrow=none;html=1;rounded=0;movable=1;resizable=1;rotatable=1;deletable=1;editable=1;locked=0;connectable=1;" edge="1" parent="1">
          <mxGeometry width="50" height="50" relative="1" as="geometry">
            <mxPoint x="942.3835820895524" y="519.9999999999999" as="sourcePoint" />
            <mxPoint x="942.3835820895524" y="478.8571428571428" as="targetPoint" />
          </mxGeometry>
        </mxCell>
        <mxCell id="-AfhXHmDIBszbEUUbrqQ-5" value="&lt;div style=&quot;text-align: start;&quot;&gt;&lt;font face=&quot;-apple-system, BlinkMacSystemFont, Segoe UI, Noto Sans, Helvetica, Arial, sans-serif, Apple Color Emoji, Segoe UI Emoji&quot; color=&quot;#1f2328&quot;&gt;&lt;span style=&quot;background-color: rgb(255, 255, 255);&quot;&gt;Receive Learning Materials&lt;/span&gt;&lt;/font&gt;&lt;/div&gt;" style="rounded=0;whiteSpace=wrap;html=1;movable=1;resizable=1;rotatable=1;deletable=1;editable=1;locked=0;connectable=1;" vertex="1" parent="1">
          <mxGeometry x="666.176119402985" y="179.88571428571424" width="146.2686567164179" height="89.14285714285714" as="geometry" />
        </mxCell>
        <mxCell id="-AfhXHmDIBszbEUUbrqQ-10" value="" style="endArrow=classic;html=1;rounded=0;movable=1;resizable=1;rotatable=1;deletable=1;editable=1;locked=0;connectable=1;" edge="1" parent="1">
          <mxGeometry width="50" height="50" relative="1" as="geometry">
            <mxPoint x="577.3701492537314" y="227.05" as="sourcePoint" />
            <mxPoint x="666.176119402985" y="227.05" as="targetPoint" />
          </mxGeometry>
        </mxCell>
        <mxCell id="-AfhXHmDIBszbEUUbrqQ-11" value="" style="endArrow=classic;html=1;rounded=0;movable=1;resizable=1;rotatable=1;deletable=1;editable=1;locked=0;connectable=1;" edge="1" parent="1">
          <mxGeometry width="50" height="50" relative="1" as="geometry">
            <mxPoint x="738.8938805970147" y="132.57571428571427" as="sourcePoint" />
            <mxPoint x="738.8938805970147" y="180.57571428571424" as="targetPoint" />
          </mxGeometry>
        </mxCell>
        <mxCell id="-AfhXHmDIBszbEUUbrqQ-12" value="&lt;font&gt;Raw data&lt;/font&gt;" style="text;html=1;align=center;verticalAlign=middle;whiteSpace=wrap;rounded=0;fontSize=9;movable=1;resizable=1;rotatable=1;deletable=1;editable=1;locked=0;connectable=1;" vertex="1" parent="1">
          <mxGeometry x="488.5641791044775" y="221.02571428571423" width="83.5820895522388" height="13.714285714285712" as="geometry" />
        </mxCell>
        <mxCell id="-AfhXHmDIBszbEUUbrqQ-15" value="" style="endArrow=classic;html=1;rounded=0;movable=1;resizable=1;rotatable=1;deletable=1;editable=1;locked=0;connectable=1;" edge="1" parent="1">
          <mxGeometry width="50" height="50" relative="1" as="geometry">
            <mxPoint x="812.4447761194031" y="227.89000000000001" as="sourcePoint" />
            <mxPoint x="901.2507462686567" y="227.89000000000001" as="targetPoint" />
          </mxGeometry>
        </mxCell>
        <mxCell id="-AfhXHmDIBszbEUUbrqQ-18" value="&lt;font style=&quot;font-size: 9px;&quot;&gt;Processed data&lt;/font&gt;" style="text;html=1;align=center;verticalAlign=middle;whiteSpace=wrap;rounded=0;movable=1;resizable=1;rotatable=1;deletable=1;editable=1;locked=0;connectable=1;" vertex="1" parent="1">
          <mxGeometry x="880.0025373134328" y="210.7385714285714" width="120.1492537313433" height="34.28571428571428" as="geometry" />
        </mxCell>
        <mxCell id="-AfhXHmDIBszbEUUbrqQ-24" value="&lt;font&gt;Standards&lt;/font&gt;" style="text;html=1;align=center;verticalAlign=middle;whiteSpace=wrap;rounded=0;fontSize=9;movable=1;resizable=1;rotatable=1;deletable=1;editable=1;locked=0;connectable=1;" vertex="1" parent="1">
          <mxGeometry x="718.4162686567163" y="98.85571428571427" width="41.7910447761194" height="41.14285714285714" as="geometry" />
        </mxCell>
        <mxCell id="-AfhXHmDIBszbEUUbrqQ-28" value="" style="endArrow=classic;html=1;rounded=0;movable=1;resizable=1;rotatable=1;deletable=1;editable=1;locked=0;connectable=1;" edge="1" parent="1">
          <mxGeometry width="50" height="50" relative="1" as="geometry">
            <mxPoint x="738.8907462686567" y="317.02857142857135" as="sourcePoint" />
            <mxPoint x="738.8907462686567" y="269.02857142857135" as="targetPoint" />
          </mxGeometry>
        </mxCell>
        <mxCell id="-AfhXHmDIBszbEUUbrqQ-31" value="&lt;font style=&quot;font-size: 9px;&quot;&gt;AI Algorithms&lt;/font&gt;" style="text;html=1;align=center;verticalAlign=middle;whiteSpace=wrap;rounded=0;movable=1;resizable=1;rotatable=1;deletable=1;editable=1;locked=0;connectable=1;" vertex="1" parent="1">
          <mxGeometry x="704.9593333333332" y="309.42999999999995" width="68.71200000000002" height="41.13999999999999" as="geometry" />
        </mxCell>
        <mxCell id="-AfhXHmDIBszbEUUbrqQ-34" value="&lt;font style=&quot;font-size: 11px;&quot;&gt;NO.:&amp;nbsp; &amp;nbsp; &amp;nbsp;P3&lt;/font&gt;" style="text;html=1;align=left;verticalAlign=middle;whiteSpace=wrap;rounded=0;movable=1;resizable=1;rotatable=1;deletable=1;editable=1;locked=0;connectable=1;" vertex="1" parent="1">
          <mxGeometry x="949.0999999999999" y="478.86" width="140" height="41.14" as="geometry" />
        </mxCell>
        <mxCell id="-AfhXHmDIBszbEUUbrqQ-35" value="&lt;font style=&quot;font-size: 11px;&quot;&gt;&amp;nbsp;NODE:&lt;span style=&quot;background-color: transparent; color: light-dark(rgb(0, 0, 0), rgb(255, 255, 255));&quot;&gt;&amp;nbsp; &amp;nbsp;A1&lt;/span&gt;&lt;/font&gt;" style="text;html=1;align=left;verticalAlign=middle;whiteSpace=wrap;rounded=0;movable=1;resizable=1;rotatable=1;deletable=1;editable=1;locked=0;connectable=1;" vertex="1" parent="1">
          <mxGeometry x="444" y="478.86" width="109.1" height="41.14" as="geometry" />
        </mxCell>
        <mxCell id="-AfhXHmDIBszbEUUbrqQ-36" value="" style="endArrow=none;html=1;rounded=0;exitX=1;exitY=1;exitDx=0;exitDy=0;entryX=1;entryY=0;entryDx=0;entryDy=0;movable=1;resizable=1;rotatable=1;deletable=1;editable=1;locked=0;connectable=1;" edge="1" parent="1" source="-AfhXHmDIBszbEUUbrqQ-35" target="-AfhXHmDIBszbEUUbrqQ-35">
          <mxGeometry width="50" height="50" relative="1" as="geometry">
            <mxPoint x="753.2388059701493" y="547.4285714285713" as="sourcePoint" />
            <mxPoint x="724.9253731343283" y="463.33257142857144" as="targetPoint" />
          </mxGeometry>
        </mxCell>
        <mxCell id="-AfhXHmDIBszbEUUbrqQ-37" value="&lt;font style=&quot;font-size: 11px;&quot;&gt;TITLE:&amp;nbsp; &amp;nbsp; &amp;nbsp; &amp;nbsp; &amp;nbsp; &lt;/font&gt;&lt;strong style=&quot;font-size: 11px; background-color: transparent; color: light-dark(rgb(0, 0, 0), rgb(255, 255, 255));&quot;&gt;Receive Learning Materials&lt;/strong&gt;&lt;span style=&quot;font-size: 11px; background-color: transparent; color: light-dark(rgb(0, 0, 0), rgb(255, 255, 255));&quot;&gt;&amp;nbsp;&lt;/span&gt;" style="text;html=1;align=left;verticalAlign=middle;whiteSpace=wrap;rounded=0;movable=1;resizable=1;rotatable=1;deletable=1;editable=1;locked=0;connectable=1;" vertex="1" parent="1">
          <mxGeometry x="566" y="485.71" width="373.1" height="27.43" as="geometry" />
        </mxCell>
        <mxCell id="-AfhXHmDIBszbEUUbrqQ-38" value="" style="rounded=0;whiteSpace=wrap;html=1;flipH=1;movable=1;resizable=1;rotatable=1;deletable=1;editable=1;locked=0;connectable=1;" vertex="1" parent="1">
          <mxGeometry x="419.9955223880597" y="540" width="679.1044776119403" height="479.9999999999999" as="geometry" />
        </mxCell>
        <mxCell id="-AfhXHmDIBszbEUUbrqQ-39" value="" style="endArrow=none;html=1;rounded=0;movable=1;resizable=1;rotatable=1;deletable=1;editable=1;locked=0;connectable=1;entryX=0;entryY=0.914;entryDx=0;entryDy=0;entryPerimeter=0;" edge="1" parent="1" target="-AfhXHmDIBszbEUUbrqQ-38">
          <mxGeometry width="50" height="50" relative="1" as="geometry">
            <mxPoint x="419.9955223880597" y="978.8571428571428" as="sourcePoint" />
            <mxPoint x="1066.7119402985072" y="978.8571428571428" as="targetPoint" />
          </mxGeometry>
        </mxCell>
        <mxCell id="-AfhXHmDIBszbEUUbrqQ-40" value="&lt;font style=&quot;font-size: 11px;&quot;&gt;PURPOSE: Facilitates the collection of emotional feedback from learners.&lt;/font&gt;" style="text;html=1;align=left;verticalAlign=middle;whiteSpace=wrap;rounded=0;movable=1;resizable=1;rotatable=1;deletable=1;editable=1;locked=0;connectable=1;" vertex="1" parent="1">
          <mxGeometry x="451.99656716417917" y="919.9971428571428" width="574.6268656716418" height="41.14285714285714" as="geometry" />
        </mxCell>
        <mxCell id="-AfhXHmDIBszbEUUbrqQ-41" value="" style="endArrow=none;html=1;rounded=0;movable=1;resizable=1;rotatable=1;deletable=1;editable=1;locked=0;connectable=1;" edge="1" parent="1">
          <mxGeometry width="50" height="50" relative="1" as="geometry">
            <mxPoint x="942.3835820895524" y="1019.9999999999999" as="sourcePoint" />
            <mxPoint x="942.3835820895524" y="978.8571428571428" as="targetPoint" />
          </mxGeometry>
        </mxCell>
        <mxCell id="-AfhXHmDIBszbEUUbrqQ-42" value="&lt;div style=&quot;text-align: start;&quot;&gt;&lt;font face=&quot;-apple-system, BlinkMacSystemFont, Segoe UI, Noto Sans, Helvetica, Arial, sans-serif, Apple Color Emoji, Segoe UI Emoji&quot; color=&quot;#1f2328&quot;&gt;&lt;span style=&quot;background-color: rgb(255, 255, 255);&quot;&gt;Receive Emotional Feedback&lt;/span&gt;&lt;/font&gt;&lt;/div&gt;" style="rounded=0;whiteSpace=wrap;html=1;movable=1;resizable=1;rotatable=1;deletable=1;editable=1;locked=0;connectable=1;" vertex="1" parent="1">
          <mxGeometry x="666.18" y="679.89" width="163.82" height="89.14" as="geometry" />
        </mxCell>
        <mxCell id="-AfhXHmDIBszbEUUbrqQ-43" value="&lt;font style=&quot;font-size: 9px;&quot;&gt;2&lt;/font&gt;" style="text;html=1;align=center;verticalAlign=middle;whiteSpace=wrap;rounded=0;movable=1;resizable=1;rotatable=1;deletable=1;editable=1;locked=0;connectable=1;" vertex="1" parent="1">
          <mxGeometry x="809.1092537313432" y="741.6" width="20.8955223880597" height="27.428571428571423" as="geometry" />
        </mxCell>
        <mxCell id="-AfhXHmDIBszbEUUbrqQ-45" value="" style="endArrow=classic;html=1;rounded=0;movable=1;resizable=1;rotatable=1;deletable=1;editable=1;locked=0;connectable=1;" edge="1" parent="1">
          <mxGeometry width="50" height="50" relative="1" as="geometry">
            <mxPoint x="577.3701492537314" y="727.05" as="sourcePoint" />
            <mxPoint x="666.176119402985" y="727.05" as="targetPoint" />
          </mxGeometry>
        </mxCell>
        <mxCell id="-AfhXHmDIBszbEUUbrqQ-46" value="" style="endArrow=classic;html=1;rounded=0;movable=1;resizable=1;rotatable=1;deletable=1;editable=1;locked=0;connectable=1;" edge="1" parent="1">
          <mxGeometry width="50" height="50" relative="1" as="geometry">
            <mxPoint x="747.6738805970147" y="631.8857142857142" as="sourcePoint" />
            <mxPoint x="747.6738805970147" y="679.8857142857141" as="targetPoint" />
          </mxGeometry>
        </mxCell>
        <mxCell id="-AfhXHmDIBszbEUUbrqQ-47" value="&lt;font&gt;Learner interactions&lt;/font&gt;" style="text;html=1;align=center;verticalAlign=middle;whiteSpace=wrap;rounded=0;fontSize=9;movable=1;resizable=1;rotatable=1;deletable=1;editable=1;locked=0;connectable=1;" vertex="1" parent="1">
          <mxGeometry x="488.5641791044775" y="721.0257142857142" width="83.5820895522388" height="13.714285714285712" as="geometry" />
        </mxCell>
        <mxCell id="-AfhXHmDIBszbEUUbrqQ-49" value="" style="endArrow=classic;html=1;rounded=0;movable=1;resizable=1;rotatable=1;deletable=1;editable=1;locked=0;connectable=1;" edge="1" parent="1">
          <mxGeometry width="50" height="50" relative="1" as="geometry">
            <mxPoint x="831.0347761194031" y="726.16" as="sourcePoint" />
            <mxPoint x="919.8407462686567" y="726.16" as="targetPoint" />
          </mxGeometry>
        </mxCell>
        <mxCell id="-AfhXHmDIBszbEUUbrqQ-51" value="&lt;font style=&quot;font-size: 9px;&quot;&gt;Emotional feedback&lt;/font&gt;" style="text;html=1;align=center;verticalAlign=middle;whiteSpace=wrap;rounded=0;movable=1;resizable=1;rotatable=1;deletable=1;editable=1;locked=0;connectable=1;" vertex="1" parent="1">
          <mxGeometry x="906.4825373134328" y="709.5085714285714" width="120.1492537313433" height="34.28571428571428" as="geometry" />
        </mxCell>
        <mxCell id="-AfhXHmDIBszbEUUbrqQ-54" value="&lt;font&gt;Feedback standards&lt;/font&gt;" style="text;html=1;align=center;verticalAlign=middle;whiteSpace=wrap;rounded=0;fontSize=9;movable=1;resizable=1;rotatable=1;deletable=1;editable=1;locked=0;connectable=1;" vertex="1" parent="1">
          <mxGeometry x="727.1962686567163" y="591.8257142857143" width="41.7910447761194" height="41.14285714285714" as="geometry" />
        </mxCell>
        <mxCell id="-AfhXHmDIBszbEUUbrqQ-56" value="" style="endArrow=classic;html=1;rounded=0;movable=1;resizable=1;rotatable=1;deletable=1;editable=1;locked=0;connectable=1;" edge="1" parent="1">
          <mxGeometry width="50" height="50" relative="1" as="geometry">
            <mxPoint x="747.6707462686567" y="817.0285714285714" as="sourcePoint" />
            <mxPoint x="747.6707462686567" y="769.0285714285714" as="targetPoint" />
          </mxGeometry>
        </mxCell>
        <mxCell id="-AfhXHmDIBszbEUUbrqQ-58" value="&lt;font style=&quot;font-size: 9px;&quot;&gt;Emotional feedback system&lt;/font&gt;" style="text;html=1;align=center;verticalAlign=middle;whiteSpace=wrap;rounded=0;movable=1;resizable=1;rotatable=1;deletable=1;editable=1;locked=0;connectable=1;" vertex="1" parent="1">
          <mxGeometry x="713.7393333333332" y="821" width="68.71200000000002" height="41.13999999999999" as="geometry" />
        </mxCell>
        <mxCell id="-AfhXHmDIBszbEUUbrqQ-60" value="&lt;font style=&quot;font-size: 11px;&quot;&gt;NO.:&amp;nbsp; &amp;nbsp; &amp;nbsp;P4&lt;/font&gt;" style="text;html=1;align=left;verticalAlign=middle;whiteSpace=wrap;rounded=0;movable=1;resizable=1;rotatable=1;deletable=1;editable=1;locked=0;connectable=1;" vertex="1" parent="1">
          <mxGeometry x="949.0999999999999" y="978.86" width="140" height="41.14" as="geometry" />
        </mxCell>
        <mxCell id="-AfhXHmDIBszbEUUbrqQ-61" value="&lt;font style=&quot;font-size: 11px;&quot;&gt;&amp;nbsp;NODE:&lt;span style=&quot;background-color: transparent; color: light-dark(rgb(0, 0, 0), rgb(255, 255, 255));&quot;&gt;&amp;nbsp; &amp;nbsp;A2&lt;/span&gt;&lt;/font&gt;" style="text;html=1;align=left;verticalAlign=middle;whiteSpace=wrap;rounded=0;movable=1;resizable=1;rotatable=1;deletable=1;editable=1;locked=0;connectable=1;" vertex="1" parent="1">
          <mxGeometry x="444" y="978.86" width="109.1" height="41.14" as="geometry" />
        </mxCell>
        <mxCell id="-AfhXHmDIBszbEUUbrqQ-62" value="" style="endArrow=none;html=1;rounded=0;exitX=1;exitY=1;exitDx=0;exitDy=0;entryX=1;entryY=0;entryDx=0;entryDy=0;movable=1;resizable=1;rotatable=1;deletable=1;editable=1;locked=0;connectable=1;" edge="1" parent="1" source="-AfhXHmDIBszbEUUbrqQ-61" target="-AfhXHmDIBszbEUUbrqQ-61">
          <mxGeometry width="50" height="50" relative="1" as="geometry">
            <mxPoint x="753.2388059701493" y="1047.4285714285713" as="sourcePoint" />
            <mxPoint x="724.9253731343283" y="963.3325714285714" as="targetPoint" />
          </mxGeometry>
        </mxCell>
        <mxCell id="-AfhXHmDIBszbEUUbrqQ-63" value="&lt;font style=&quot;font-size: 11px;&quot;&gt;TITLE:&amp;nbsp; &amp;nbsp; &amp;nbsp; &amp;nbsp; &amp;nbsp; &lt;/font&gt;&lt;strong style=&quot;font-size: 11px; background-color: transparent; color: light-dark(rgb(0, 0, 0), rgb(255, 255, 255));&quot;&gt;Receive Emotional Feedback&lt;/strong&gt;&lt;span style=&quot;font-size: 11px; background-color: transparent; color: light-dark(rgb(0, 0, 0), rgb(255, 255, 255));&quot;&gt;&amp;nbsp;&lt;/span&gt;" style="text;html=1;align=left;verticalAlign=middle;whiteSpace=wrap;rounded=0;movable=1;resizable=1;rotatable=1;deletable=1;editable=1;locked=0;connectable=1;" vertex="1" parent="1">
          <mxGeometry x="566" y="985.71" width="373.1" height="27.43" as="geometry" />
        </mxCell>
        <mxCell id="-AfhXHmDIBszbEUUbrqQ-65" value="" style="rounded=0;whiteSpace=wrap;html=1;flipH=1;movable=1;resizable=1;rotatable=1;deletable=1;editable=1;locked=0;connectable=1;" vertex="1" parent="1">
          <mxGeometry x="419.9955223880597" y="1040" width="679.1044776119403" height="479.9999999999999" as="geometry" />
        </mxCell>
        <mxCell id="-AfhXHmDIBszbEUUbrqQ-66" value="" style="endArrow=none;html=1;rounded=0;movable=1;resizable=1;rotatable=1;deletable=1;editable=1;locked=0;connectable=1;entryX=0;entryY=0.914;entryDx=0;entryDy=0;entryPerimeter=0;" edge="1" parent="1" target="-AfhXHmDIBszbEUUbrqQ-65">
          <mxGeometry width="50" height="50" relative="1" as="geometry">
            <mxPoint x="419.9955223880597" y="1478.8571428571427" as="sourcePoint" />
            <mxPoint x="1066.7119402985072" y="1478.8571428571427" as="targetPoint" />
          </mxGeometry>
        </mxCell>
        <mxCell id="-AfhXHmDIBszbEUUbrqQ-67" value="&lt;font style=&quot;font-size: 11px;&quot;&gt;PURPOSE: Represents the process of encouraging and motivating students based on emotional feedback.&lt;/font&gt;" style="text;html=1;align=left;verticalAlign=middle;whiteSpace=wrap;rounded=0;movable=1;resizable=1;rotatable=1;deletable=1;editable=1;locked=0;connectable=1;" vertex="1" parent="1">
          <mxGeometry x="451.99656716417917" y="1419.9971428571428" width="574.6268656716418" height="41.14285714285714" as="geometry" />
        </mxCell>
        <mxCell id="-AfhXHmDIBszbEUUbrqQ-68" value="" style="endArrow=none;html=1;rounded=0;movable=1;resizable=1;rotatable=1;deletable=1;editable=1;locked=0;connectable=1;" edge="1" parent="1">
          <mxGeometry width="50" height="50" relative="1" as="geometry">
            <mxPoint x="942.3835820895524" y="1520" as="sourcePoint" />
            <mxPoint x="942.3835820895524" y="1478.8571428571427" as="targetPoint" />
          </mxGeometry>
        </mxCell>
        <mxCell id="-AfhXHmDIBszbEUUbrqQ-69" value="&lt;div style=&quot;text-align: start;&quot;&gt;&lt;font face=&quot;-apple-system, BlinkMacSystemFont, Segoe UI, Noto Sans, Helvetica, Arial, sans-serif, Apple Color Emoji, Segoe UI Emoji&quot; color=&quot;#1f2328&quot;&gt;&lt;span style=&quot;background-color: rgb(255, 255, 255);&quot;&gt;Encourage Student&lt;/span&gt;&lt;/font&gt;&lt;/div&gt;" style="rounded=0;whiteSpace=wrap;html=1;movable=1;resizable=1;rotatable=1;deletable=1;editable=1;locked=0;connectable=1;" vertex="1" parent="1">
          <mxGeometry x="666.18" y="1179.8899999999999" width="163.82" height="89.14" as="geometry" />
        </mxCell>
        <mxCell id="-AfhXHmDIBszbEUUbrqQ-70" value="&lt;font style=&quot;font-size: 9px;&quot;&gt;3&lt;/font&gt;" style="text;html=1;align=center;verticalAlign=middle;whiteSpace=wrap;rounded=0;movable=1;resizable=1;rotatable=1;deletable=1;editable=1;locked=0;connectable=1;" vertex="1" parent="1">
          <mxGeometry x="809.1092537313432" y="1241.6" width="20.8955223880597" height="27.428571428571423" as="geometry" />
        </mxCell>
        <mxCell id="-AfhXHmDIBszbEUUbrqQ-71" value="" style="endArrow=classic;html=1;rounded=0;movable=1;resizable=1;rotatable=1;deletable=1;editable=1;locked=0;connectable=1;" edge="1" parent="1">
          <mxGeometry width="50" height="50" relative="1" as="geometry">
            <mxPoint x="577.3701492537314" y="1227.05" as="sourcePoint" />
            <mxPoint x="666.176119402985" y="1227.05" as="targetPoint" />
          </mxGeometry>
        </mxCell>
        <mxCell id="-AfhXHmDIBszbEUUbrqQ-72" value="" style="endArrow=classic;html=1;rounded=0;movable=1;resizable=1;rotatable=1;deletable=1;editable=1;locked=0;connectable=1;" edge="1" parent="1">
          <mxGeometry width="50" height="50" relative="1" as="geometry">
            <mxPoint x="747.6738805970147" y="1131.8857142857141" as="sourcePoint" />
            <mxPoint x="747.6738805970147" y="1179.8857142857141" as="targetPoint" />
          </mxGeometry>
        </mxCell>
        <mxCell id="-AfhXHmDIBszbEUUbrqQ-73" value="Emotional feedback" style="text;html=1;align=center;verticalAlign=middle;whiteSpace=wrap;rounded=0;fontSize=9;movable=1;resizable=1;rotatable=1;deletable=1;editable=1;locked=0;connectable=1;" vertex="1" parent="1">
          <mxGeometry x="488.5641791044775" y="1221.0257142857142" width="83.5820895522388" height="13.714285714285712" as="geometry" />
        </mxCell>
        <mxCell id="-AfhXHmDIBszbEUUbrqQ-74" value="" style="endArrow=classic;html=1;rounded=0;movable=1;resizable=1;rotatable=1;deletable=1;editable=1;locked=0;connectable=1;" edge="1" parent="1">
          <mxGeometry width="50" height="50" relative="1" as="geometry">
            <mxPoint x="831.0347761194031" y="1226.1599999999999" as="sourcePoint" />
            <mxPoint x="919.8407462686567" y="1226.1599999999999" as="targetPoint" />
          </mxGeometry>
        </mxCell>
        <mxCell id="-AfhXHmDIBszbEUUbrqQ-75" value="&lt;font style=&quot;font-size: 9px;&quot;&gt;Encouraged students&lt;/font&gt;" style="text;html=1;align=center;verticalAlign=middle;whiteSpace=wrap;rounded=0;movable=1;resizable=1;rotatable=1;deletable=1;editable=1;locked=0;connectable=1;" vertex="1" parent="1">
          <mxGeometry x="906.4825373134328" y="1209.5085714285715" width="120.1492537313433" height="34.28571428571428" as="geometry" />
        </mxCell>
        <mxCell id="-AfhXHmDIBszbEUUbrqQ-76" value="&lt;font&gt;Motivation strategies&lt;/font&gt;" style="text;html=1;align=center;verticalAlign=middle;whiteSpace=wrap;rounded=0;fontSize=9;movable=1;resizable=1;rotatable=1;deletable=1;editable=1;locked=0;connectable=1;" vertex="1" parent="1">
          <mxGeometry x="727.1962686567163" y="1091.8257142857142" width="41.7910447761194" height="41.14285714285714" as="geometry" />
        </mxCell>
        <mxCell id="-AfhXHmDIBszbEUUbrqQ-77" value="" style="endArrow=classic;html=1;rounded=0;movable=1;resizable=1;rotatable=1;deletable=1;editable=1;locked=0;connectable=1;" edge="1" parent="1">
          <mxGeometry width="50" height="50" relative="1" as="geometry">
            <mxPoint x="747.6707462686567" y="1317.0285714285715" as="sourcePoint" />
            <mxPoint x="747.6707462686567" y="1269.0285714285715" as="targetPoint" />
          </mxGeometry>
        </mxCell>
        <mxCell id="-AfhXHmDIBszbEUUbrqQ-78" value="&lt;font style=&quot;font-size: 9px;&quot;&gt;Pedagogical agent&lt;/font&gt;" style="text;html=1;align=center;verticalAlign=middle;whiteSpace=wrap;rounded=0;movable=1;resizable=1;rotatable=1;deletable=1;editable=1;locked=0;connectable=1;" vertex="1" parent="1">
          <mxGeometry x="713.7393333333332" y="1310" width="68.71200000000002" height="41.13999999999999" as="geometry" />
        </mxCell>
        <mxCell id="-AfhXHmDIBszbEUUbrqQ-79" value="&lt;font style=&quot;font-size: 11px;&quot;&gt;NO.:&amp;nbsp; &amp;nbsp; &amp;nbsp;P5&lt;/font&gt;" style="text;html=1;align=left;verticalAlign=middle;whiteSpace=wrap;rounded=0;movable=1;resizable=1;rotatable=1;deletable=1;editable=1;locked=0;connectable=1;" vertex="1" parent="1">
          <mxGeometry x="949.0999999999999" y="1478.8600000000001" width="140" height="41.14" as="geometry" />
        </mxCell>
        <mxCell id="-AfhXHmDIBszbEUUbrqQ-80" value="&lt;font style=&quot;font-size: 11px;&quot;&gt;&amp;nbsp;NODE:&lt;span style=&quot;background-color: transparent; color: light-dark(rgb(0, 0, 0), rgb(255, 255, 255));&quot;&gt;&amp;nbsp; &amp;nbsp;A3&lt;/span&gt;&lt;/font&gt;" style="text;html=1;align=left;verticalAlign=middle;whiteSpace=wrap;rounded=0;movable=1;resizable=1;rotatable=1;deletable=1;editable=1;locked=0;connectable=1;" vertex="1" parent="1">
          <mxGeometry x="444" y="1478.8600000000001" width="109.1" height="41.14" as="geometry" />
        </mxCell>
        <mxCell id="-AfhXHmDIBszbEUUbrqQ-81" value="" style="endArrow=none;html=1;rounded=0;exitX=1;exitY=1;exitDx=0;exitDy=0;entryX=1;entryY=0;entryDx=0;entryDy=0;movable=1;resizable=1;rotatable=1;deletable=1;editable=1;locked=0;connectable=1;" edge="1" parent="1" source="-AfhXHmDIBszbEUUbrqQ-80" target="-AfhXHmDIBszbEUUbrqQ-80">
          <mxGeometry width="50" height="50" relative="1" as="geometry">
            <mxPoint x="753.2388059701493" y="1547.4285714285713" as="sourcePoint" />
            <mxPoint x="724.9253731343283" y="1463.3325714285716" as="targetPoint" />
          </mxGeometry>
        </mxCell>
        <mxCell id="-AfhXHmDIBszbEUUbrqQ-82" value="&lt;font style=&quot;font-size: 11px;&quot;&gt;TITLE:&amp;nbsp; &amp;nbsp; &amp;nbsp; &amp;nbsp; &amp;nbsp; &lt;b&gt;Encourage Student&lt;/b&gt;&lt;/font&gt;&lt;span style=&quot;font-size: 11px; background-color: transparent; color: light-dark(rgb(0, 0, 0), rgb(255, 255, 255));&quot;&gt;&amp;nbsp;&lt;/span&gt;" style="text;html=1;align=left;verticalAlign=middle;whiteSpace=wrap;rounded=0;movable=1;resizable=1;rotatable=1;deletable=1;editable=1;locked=0;connectable=1;" vertex="1" parent="1">
          <mxGeometry x="566" y="1485.71" width="373.1" height="27.43" as="geometry" />
        </mxCell>
        <mxCell id="-AfhXHmDIBszbEUUbrqQ-83" value="" style="rounded=0;whiteSpace=wrap;html=1;flipH=1;movable=1;resizable=1;rotatable=1;deletable=1;editable=1;locked=0;connectable=1;" vertex="1" parent="1">
          <mxGeometry x="1159.9955223880597" y="40" width="679.1044776119403" height="479.9999999999999" as="geometry" />
        </mxCell>
        <mxCell id="-AfhXHmDIBszbEUUbrqQ-84" value="" style="endArrow=none;html=1;rounded=0;movable=1;resizable=1;rotatable=1;deletable=1;editable=1;locked=0;connectable=1;entryX=0;entryY=0.914;entryDx=0;entryDy=0;entryPerimeter=0;" edge="1" parent="1" target="-AfhXHmDIBszbEUUbrqQ-83">
          <mxGeometry width="50" height="50" relative="1" as="geometry">
            <mxPoint x="1159.9955223880597" y="478.85714285714266" as="sourcePoint" />
            <mxPoint x="1806.7119402985072" y="478.85714285714266" as="targetPoint" />
          </mxGeometry>
        </mxCell>
        <mxCell id="-AfhXHmDIBszbEUUbrqQ-85" value="&lt;font style=&quot;font-size: 11px;&quot;&gt;PURPOSE: Represents the process of evaluating student performance based on their activities and predefined assessment criteria.&lt;/font&gt;" style="text;html=1;align=left;verticalAlign=middle;whiteSpace=wrap;rounded=0;movable=1;resizable=1;rotatable=1;deletable=1;editable=1;locked=0;connectable=1;" vertex="1" parent="1">
          <mxGeometry x="1191.9965671641792" y="419.99714285714276" width="574.6268656716418" height="41.14285714285714" as="geometry" />
        </mxCell>
        <mxCell id="-AfhXHmDIBszbEUUbrqQ-86" value="" style="endArrow=none;html=1;rounded=0;movable=1;resizable=1;rotatable=1;deletable=1;editable=1;locked=0;connectable=1;" edge="1" parent="1">
          <mxGeometry width="50" height="50" relative="1" as="geometry">
            <mxPoint x="1682.3835820895524" y="520" as="sourcePoint" />
            <mxPoint x="1682.3835820895524" y="478.85714285714266" as="targetPoint" />
          </mxGeometry>
        </mxCell>
        <mxCell id="-AfhXHmDIBszbEUUbrqQ-87" value="&lt;div style=&quot;text-align: start;&quot;&gt;&lt;font face=&quot;-apple-system, BlinkMacSystemFont, Segoe UI, Noto Sans, Helvetica, Arial, sans-serif, Apple Color Emoji, Segoe UI Emoji&quot; color=&quot;#1f2328&quot;&gt;&lt;span style=&quot;background-color: rgb(255, 255, 255);&quot;&gt;Assess Student Performance&lt;/span&gt;&lt;/font&gt;&lt;/div&gt;" style="rounded=0;whiteSpace=wrap;html=1;movable=1;resizable=1;rotatable=1;deletable=1;editable=1;locked=0;connectable=1;" vertex="1" parent="1">
          <mxGeometry x="1406.1799999999998" y="179.88999999999987" width="163.82" height="89.14" as="geometry" />
        </mxCell>
        <mxCell id="-AfhXHmDIBszbEUUbrqQ-88" value="&lt;font style=&quot;font-size: 9px;&quot;&gt;4&lt;/font&gt;" style="text;html=1;align=center;verticalAlign=middle;whiteSpace=wrap;rounded=0;movable=1;resizable=1;rotatable=1;deletable=1;editable=1;locked=0;connectable=1;" vertex="1" parent="1">
          <mxGeometry x="1549.1092537313432" y="241.5999999999999" width="20.8955223880597" height="27.428571428571423" as="geometry" />
        </mxCell>
        <mxCell id="-AfhXHmDIBszbEUUbrqQ-89" value="" style="endArrow=classic;html=1;rounded=0;movable=1;resizable=1;rotatable=1;deletable=1;editable=1;locked=0;connectable=1;" edge="1" parent="1">
          <mxGeometry width="50" height="50" relative="1" as="geometry">
            <mxPoint x="1317.3701492537314" y="227.04999999999995" as="sourcePoint" />
            <mxPoint x="1406.176119402985" y="227.04999999999995" as="targetPoint" />
          </mxGeometry>
        </mxCell>
        <mxCell id="-AfhXHmDIBszbEUUbrqQ-90" value="" style="endArrow=classic;html=1;rounded=0;movable=1;resizable=1;rotatable=1;deletable=1;editable=1;locked=0;connectable=1;" edge="1" parent="1">
          <mxGeometry width="50" height="50" relative="1" as="geometry">
            <mxPoint x="1487.6738805970147" y="131.88571428571413" as="sourcePoint" />
            <mxPoint x="1487.6738805970147" y="179.88571428571413" as="targetPoint" />
          </mxGeometry>
        </mxCell>
        <mxCell id="-AfhXHmDIBszbEUUbrqQ-91" value="Student activities" style="text;html=1;align=center;verticalAlign=middle;whiteSpace=wrap;rounded=0;fontSize=9;movable=1;resizable=1;rotatable=1;deletable=1;editable=1;locked=0;connectable=1;" vertex="1" parent="1">
          <mxGeometry x="1228.5641791044775" y="221.02571428571423" width="83.5820895522388" height="13.714285714285712" as="geometry" />
        </mxCell>
        <mxCell id="-AfhXHmDIBszbEUUbrqQ-92" value="" style="endArrow=classic;html=1;rounded=0;movable=1;resizable=1;rotatable=1;deletable=1;editable=1;locked=0;connectable=1;" edge="1" parent="1">
          <mxGeometry width="50" height="50" relative="1" as="geometry">
            <mxPoint x="1571.034776119403" y="226.15999999999985" as="sourcePoint" />
            <mxPoint x="1659.8407462686569" y="226.15999999999985" as="targetPoint" />
          </mxGeometry>
        </mxCell>
        <mxCell id="-AfhXHmDIBszbEUUbrqQ-93" value="&lt;font style=&quot;font-size: 9px;&quot;&gt;Performance report&lt;/font&gt;" style="text;html=1;align=center;verticalAlign=middle;whiteSpace=wrap;rounded=0;movable=1;resizable=1;rotatable=1;deletable=1;editable=1;locked=0;connectable=1;" vertex="1" parent="1">
          <mxGeometry x="1646.4825373134327" y="209.50857142857149" width="120.1492537313433" height="34.28571428571428" as="geometry" />
        </mxCell>
        <mxCell id="-AfhXHmDIBszbEUUbrqQ-94" value="&lt;font&gt;Assessment criteria&lt;/font&gt;" style="text;html=1;align=center;verticalAlign=middle;whiteSpace=wrap;rounded=0;fontSize=9;movable=1;resizable=1;rotatable=1;deletable=1;editable=1;locked=0;connectable=1;" vertex="1" parent="1">
          <mxGeometry x="1467.1962686567163" y="91.82571428571418" width="41.7910447761194" height="41.14285714285714" as="geometry" />
        </mxCell>
        <mxCell id="-AfhXHmDIBszbEUUbrqQ-95" value="" style="endArrow=classic;html=1;rounded=0;movable=1;resizable=1;rotatable=1;deletable=1;editable=1;locked=0;connectable=1;" edge="1" parent="1">
          <mxGeometry width="50" height="50" relative="1" as="geometry">
            <mxPoint x="1487.6707462686568" y="317.02857142857147" as="sourcePoint" />
            <mxPoint x="1487.6707462686568" y="269.02857142857147" as="targetPoint" />
          </mxGeometry>
        </mxCell>
        <mxCell id="-AfhXHmDIBszbEUUbrqQ-96" value="&lt;font style=&quot;font-size: 9px;&quot;&gt;Evaluation tool&lt;/font&gt;" style="text;html=1;align=center;verticalAlign=middle;whiteSpace=wrap;rounded=0;movable=1;resizable=1;rotatable=1;deletable=1;editable=1;locked=0;connectable=1;" vertex="1" parent="1">
          <mxGeometry x="1453.7293333333332" y="309.43" width="68.71200000000002" height="41.13999999999999" as="geometry" />
        </mxCell>
        <mxCell id="-AfhXHmDIBszbEUUbrqQ-97" value="&lt;font style=&quot;font-size: 11px;&quot;&gt;NO.:&amp;nbsp; &amp;nbsp; &amp;nbsp;P6&lt;/font&gt;" style="text;html=1;align=left;verticalAlign=middle;whiteSpace=wrap;rounded=0;movable=1;resizable=1;rotatable=1;deletable=1;editable=1;locked=0;connectable=1;" vertex="1" parent="1">
          <mxGeometry x="1689.1" y="478.8600000000001" width="140" height="41.14" as="geometry" />
        </mxCell>
        <mxCell id="-AfhXHmDIBszbEUUbrqQ-98" value="&lt;font style=&quot;font-size: 11px;&quot;&gt;&amp;nbsp;NODE:&lt;span style=&quot;background-color: transparent; color: light-dark(rgb(0, 0, 0), rgb(255, 255, 255));&quot;&gt;&amp;nbsp; &amp;nbsp;A4&lt;/span&gt;&lt;/font&gt;" style="text;html=1;align=left;verticalAlign=middle;whiteSpace=wrap;rounded=0;movable=1;resizable=1;rotatable=1;deletable=1;editable=1;locked=0;connectable=1;" vertex="1" parent="1">
          <mxGeometry x="1184" y="478.8600000000001" width="109.1" height="41.14" as="geometry" />
        </mxCell>
        <mxCell id="-AfhXHmDIBszbEUUbrqQ-99" value="" style="endArrow=none;html=1;rounded=0;exitX=1;exitY=1;exitDx=0;exitDy=0;entryX=1;entryY=0;entryDx=0;entryDy=0;movable=1;resizable=1;rotatable=1;deletable=1;editable=1;locked=0;connectable=1;" edge="1" parent="1" source="-AfhXHmDIBszbEUUbrqQ-98" target="-AfhXHmDIBszbEUUbrqQ-98">
          <mxGeometry width="50" height="50" relative="1" as="geometry">
            <mxPoint x="1493.2388059701493" y="547.4285714285713" as="sourcePoint" />
            <mxPoint x="1464.9253731343283" y="463.33257142857155" as="targetPoint" />
          </mxGeometry>
        </mxCell>
        <mxCell id="-AfhXHmDIBszbEUUbrqQ-100" value="&lt;font style=&quot;font-size: 11px;&quot;&gt;TITLE:&amp;nbsp; &amp;nbsp; &amp;nbsp; &amp;nbsp; &amp;nbsp; &lt;b&gt;Assess Student Performance&lt;/b&gt;&lt;/font&gt;" style="text;html=1;align=left;verticalAlign=middle;whiteSpace=wrap;rounded=0;movable=1;resizable=1;rotatable=1;deletable=1;editable=1;locked=0;connectable=1;" vertex="1" parent="1">
          <mxGeometry x="1306" y="485.71000000000004" width="373.1" height="27.43" as="geometry" />
        </mxCell>
        <mxCell id="-AfhXHmDIBszbEUUbrqQ-101" value="" style="rounded=0;whiteSpace=wrap;html=1;flipH=1;movable=1;resizable=1;rotatable=1;deletable=1;editable=1;locked=0;connectable=1;" vertex="1" parent="1">
          <mxGeometry x="1159.9955223880597" y="540" width="679.1044776119403" height="479.9999999999999" as="geometry" />
        </mxCell>
        <mxCell id="-AfhXHmDIBszbEUUbrqQ-102" value="" style="endArrow=none;html=1;rounded=0;movable=1;resizable=1;rotatable=1;deletable=1;editable=1;locked=0;connectable=1;entryX=0;entryY=0.914;entryDx=0;entryDy=0;entryPerimeter=0;" edge="1" parent="1" target="-AfhXHmDIBszbEUUbrqQ-101">
          <mxGeometry width="50" height="50" relative="1" as="geometry">
            <mxPoint x="1159.9955223880597" y="978.8571428571427" as="sourcePoint" />
            <mxPoint x="1806.7119402985072" y="978.8571428571427" as="targetPoint" />
          </mxGeometry>
        </mxCell>
        <mxCell id="-AfhXHmDIBszbEUUbrqQ-103" value="&lt;font style=&quot;font-size: 11px;&quot;&gt;PURPOSE: Represents the process of tailoring the learning path based on the student&#39;s performance and learning objectives.&lt;/font&gt;" style="text;html=1;align=left;verticalAlign=middle;whiteSpace=wrap;rounded=0;movable=1;resizable=1;rotatable=1;deletable=1;editable=1;locked=0;connectable=1;" vertex="1" parent="1">
          <mxGeometry x="1191.9965671641792" y="919.9971428571428" width="574.6268656716418" height="41.14285714285714" as="geometry" />
        </mxCell>
        <mxCell id="-AfhXHmDIBszbEUUbrqQ-104" value="" style="endArrow=none;html=1;rounded=0;movable=1;resizable=1;rotatable=1;deletable=1;editable=1;locked=0;connectable=1;" edge="1" parent="1">
          <mxGeometry width="50" height="50" relative="1" as="geometry">
            <mxPoint x="1682.3835820895524" y="1020" as="sourcePoint" />
            <mxPoint x="1682.3835820895524" y="978.8571428571427" as="targetPoint" />
          </mxGeometry>
        </mxCell>
        <mxCell id="-AfhXHmDIBszbEUUbrqQ-105" value="&lt;div style=&quot;text-align: start;&quot;&gt;&lt;font face=&quot;-apple-system, BlinkMacSystemFont, Segoe UI, Noto Sans, Helvetica, Arial, sans-serif, Apple Color Emoji, Segoe UI Emoji&quot; color=&quot;#1f2328&quot;&gt;&lt;span style=&quot;background-color: rgb(255, 255, 255);&quot;&gt;Adapt Learning Path&lt;/span&gt;&lt;/font&gt;&lt;/div&gt;" style="rounded=0;whiteSpace=wrap;html=1;movable=1;resizable=1;rotatable=1;deletable=1;editable=1;locked=0;connectable=1;" vertex="1" parent="1">
          <mxGeometry x="1406.1799999999998" y="679.8899999999999" width="163.82" height="89.14" as="geometry" />
        </mxCell>
        <mxCell id="-AfhXHmDIBszbEUUbrqQ-106" value="&lt;font style=&quot;font-size: 9px;&quot;&gt;5&lt;/font&gt;" style="text;html=1;align=center;verticalAlign=middle;whiteSpace=wrap;rounded=0;movable=1;resizable=1;rotatable=1;deletable=1;editable=1;locked=0;connectable=1;" vertex="1" parent="1">
          <mxGeometry x="1549.1092537313432" y="741.5999999999999" width="20.8955223880597" height="27.428571428571423" as="geometry" />
        </mxCell>
        <mxCell id="-AfhXHmDIBszbEUUbrqQ-107" value="" style="endArrow=classic;html=1;rounded=0;movable=1;resizable=1;rotatable=1;deletable=1;editable=1;locked=0;connectable=1;" edge="1" parent="1">
          <mxGeometry width="50" height="50" relative="1" as="geometry">
            <mxPoint x="1317.3701492537314" y="727.05" as="sourcePoint" />
            <mxPoint x="1406.176119402985" y="727.05" as="targetPoint" />
          </mxGeometry>
        </mxCell>
        <mxCell id="-AfhXHmDIBszbEUUbrqQ-108" value="" style="endArrow=classic;html=1;rounded=0;movable=1;resizable=1;rotatable=1;deletable=1;editable=1;locked=0;connectable=1;" edge="1" parent="1">
          <mxGeometry width="50" height="50" relative="1" as="geometry">
            <mxPoint x="1487.6738805970147" y="631.8857142857141" as="sourcePoint" />
            <mxPoint x="1487.6738805970147" y="679.8857142857141" as="targetPoint" />
          </mxGeometry>
        </mxCell>
        <mxCell id="-AfhXHmDIBszbEUUbrqQ-109" value="Performance report" style="text;html=1;align=center;verticalAlign=middle;whiteSpace=wrap;rounded=0;fontSize=9;movable=1;resizable=1;rotatable=1;deletable=1;editable=1;locked=0;connectable=1;" vertex="1" parent="1">
          <mxGeometry x="1228.5641791044775" y="721.0257142857142" width="83.5820895522388" height="13.714285714285712" as="geometry" />
        </mxCell>
        <mxCell id="-AfhXHmDIBszbEUUbrqQ-110" value="" style="endArrow=classic;html=1;rounded=0;movable=1;resizable=1;rotatable=1;deletable=1;editable=1;locked=0;connectable=1;" edge="1" parent="1">
          <mxGeometry width="50" height="50" relative="1" as="geometry">
            <mxPoint x="1571.034776119403" y="726.1599999999999" as="sourcePoint" />
            <mxPoint x="1659.8407462686569" y="726.1599999999999" as="targetPoint" />
          </mxGeometry>
        </mxCell>
        <mxCell id="-AfhXHmDIBszbEUUbrqQ-111" value="&lt;font style=&quot;font-size: 9px;&quot;&gt;Adapted learning path&lt;/font&gt;" style="text;html=1;align=center;verticalAlign=middle;whiteSpace=wrap;rounded=0;movable=1;resizable=1;rotatable=1;deletable=1;editable=1;locked=0;connectable=1;" vertex="1" parent="1">
          <mxGeometry x="1646.4825373134327" y="709.5085714285715" width="120.1492537313433" height="34.28571428571428" as="geometry" />
        </mxCell>
        <mxCell id="-AfhXHmDIBszbEUUbrqQ-112" value="&lt;font&gt;Learning objectives&lt;/font&gt;" style="text;html=1;align=center;verticalAlign=middle;whiteSpace=wrap;rounded=0;fontSize=9;movable=1;resizable=1;rotatable=1;deletable=1;editable=1;locked=0;connectable=1;" vertex="1" parent="1">
          <mxGeometry x="1467.1962686567163" y="591.8257142857142" width="41.7910447761194" height="41.14285714285714" as="geometry" />
        </mxCell>
        <mxCell id="-AfhXHmDIBszbEUUbrqQ-113" value="" style="endArrow=classic;html=1;rounded=0;movable=1;resizable=1;rotatable=1;deletable=1;editable=1;locked=0;connectable=1;" edge="1" parent="1">
          <mxGeometry width="50" height="50" relative="1" as="geometry">
            <mxPoint x="1487.6707462686568" y="817.0285714285715" as="sourcePoint" />
            <mxPoint x="1487.6707462686568" y="769.0285714285715" as="targetPoint" />
          </mxGeometry>
        </mxCell>
        <mxCell id="-AfhXHmDIBszbEUUbrqQ-114" value="&lt;font style=&quot;font-size: 9px;&quot;&gt;Adaptive learning system&lt;/font&gt;" style="text;html=1;align=center;verticalAlign=middle;whiteSpace=wrap;rounded=0;movable=1;resizable=1;rotatable=1;deletable=1;editable=1;locked=0;connectable=1;" vertex="1" parent="1">
          <mxGeometry x="1453.7393333333332" y="810" width="68.71200000000002" height="41.13999999999999" as="geometry" />
        </mxCell>
        <mxCell id="-AfhXHmDIBszbEUUbrqQ-115" value="&lt;font style=&quot;font-size: 11px;&quot;&gt;NO.:&amp;nbsp; &amp;nbsp; &amp;nbsp;P7&lt;/font&gt;" style="text;html=1;align=left;verticalAlign=middle;whiteSpace=wrap;rounded=0;movable=1;resizable=1;rotatable=1;deletable=1;editable=1;locked=0;connectable=1;" vertex="1" parent="1">
          <mxGeometry x="1689.1" y="978.8600000000001" width="140" height="41.14" as="geometry" />
        </mxCell>
        <mxCell id="-AfhXHmDIBszbEUUbrqQ-116" value="&lt;font style=&quot;font-size: 11px;&quot;&gt;&amp;nbsp;NODE:&lt;span style=&quot;background-color: transparent; color: light-dark(rgb(0, 0, 0), rgb(255, 255, 255));&quot;&gt;&amp;nbsp; &amp;nbsp;A5&lt;/span&gt;&lt;/font&gt;" style="text;html=1;align=left;verticalAlign=middle;whiteSpace=wrap;rounded=0;movable=1;resizable=1;rotatable=1;deletable=1;editable=1;locked=0;connectable=1;" vertex="1" parent="1">
          <mxGeometry x="1184" y="978.8600000000001" width="109.1" height="41.14" as="geometry" />
        </mxCell>
        <mxCell id="-AfhXHmDIBszbEUUbrqQ-117" value="" style="endArrow=none;html=1;rounded=0;exitX=1;exitY=1;exitDx=0;exitDy=0;entryX=1;entryY=0;entryDx=0;entryDy=0;movable=1;resizable=1;rotatable=1;deletable=1;editable=1;locked=0;connectable=1;" edge="1" parent="1" source="-AfhXHmDIBszbEUUbrqQ-116" target="-AfhXHmDIBszbEUUbrqQ-116">
          <mxGeometry width="50" height="50" relative="1" as="geometry">
            <mxPoint x="1493.2388059701493" y="1047.4285714285713" as="sourcePoint" />
            <mxPoint x="1464.9253731343283" y="963.3325714285716" as="targetPoint" />
          </mxGeometry>
        </mxCell>
        <mxCell id="-AfhXHmDIBszbEUUbrqQ-118" value="&lt;font style=&quot;font-size: 11px;&quot;&gt;TITLE:&amp;nbsp; &amp;nbsp; &amp;nbsp; &amp;nbsp; &amp;nbsp; &lt;b&gt;Adapt Learning Path&lt;/b&gt;&lt;/font&gt;" style="text;html=1;align=left;verticalAlign=middle;whiteSpace=wrap;rounded=0;movable=1;resizable=1;rotatable=1;deletable=1;editable=1;locked=0;connectable=1;" vertex="1" parent="1">
          <mxGeometry x="1306" y="985.71" width="373.1" height="27.43" as="geometry" />
        </mxCell>
        <mxCell id="-AfhXHmDIBszbEUUbrqQ-119" value="" style="rounded=0;whiteSpace=wrap;html=1;flipH=1;movable=1;resizable=1;rotatable=1;deletable=1;editable=1;locked=0;connectable=1;" vertex="1" parent="1">
          <mxGeometry x="1159.9955223880597" y="1040" width="679.1044776119403" height="479.9999999999999" as="geometry" />
        </mxCell>
        <mxCell id="-AfhXHmDIBszbEUUbrqQ-120" value="" style="endArrow=none;html=1;rounded=0;movable=1;resizable=1;rotatable=1;deletable=1;editable=1;locked=0;connectable=1;entryX=0;entryY=0.914;entryDx=0;entryDy=0;entryPerimeter=0;" edge="1" parent="1" target="-AfhXHmDIBszbEUUbrqQ-119">
          <mxGeometry width="50" height="50" relative="1" as="geometry">
            <mxPoint x="1159.9955223880597" y="1478.8571428571427" as="sourcePoint" />
            <mxPoint x="1806.7119402985072" y="1478.8571428571427" as="targetPoint" />
          </mxGeometry>
        </mxCell>
        <mxCell id="-AfhXHmDIBszbEUUbrqQ-121" value="&lt;font style=&quot;font-size: 11px;&quot;&gt;PURPOSE: Represents the process of revising and updating learning materials based on the adapted learning path.&lt;/font&gt;" style="text;html=1;align=left;verticalAlign=middle;whiteSpace=wrap;rounded=0;movable=1;resizable=1;rotatable=1;deletable=1;editable=1;locked=0;connectable=1;" vertex="1" parent="1">
          <mxGeometry x="1191.9965671641792" y="1419.9971428571428" width="574.6268656716418" height="41.14285714285714" as="geometry" />
        </mxCell>
        <mxCell id="-AfhXHmDIBszbEUUbrqQ-122" value="" style="endArrow=none;html=1;rounded=0;movable=1;resizable=1;rotatable=1;deletable=1;editable=1;locked=0;connectable=1;" edge="1" parent="1">
          <mxGeometry width="50" height="50" relative="1" as="geometry">
            <mxPoint x="1682.3835820895524" y="1520" as="sourcePoint" />
            <mxPoint x="1682.3835820895524" y="1478.8571428571427" as="targetPoint" />
          </mxGeometry>
        </mxCell>
        <mxCell id="-AfhXHmDIBszbEUUbrqQ-123" value="&lt;div style=&quot;text-align: start;&quot;&gt;&lt;font face=&quot;-apple-system, BlinkMacSystemFont, Segoe UI, Noto Sans, Helvetica, Arial, sans-serif, Apple Color Emoji, Segoe UI Emoji&quot; color=&quot;#1f2328&quot;&gt;&lt;span style=&quot;background-color: rgb(255, 255, 255);&quot;&gt;Update Learning Materials&lt;/span&gt;&lt;/font&gt;&lt;/div&gt;" style="rounded=0;whiteSpace=wrap;html=1;movable=1;resizable=1;rotatable=1;deletable=1;editable=1;locked=0;connectable=1;" vertex="1" parent="1">
          <mxGeometry x="1406.1799999999998" y="1179.8899999999999" width="163.82" height="89.14" as="geometry" />
        </mxCell>
        <mxCell id="-AfhXHmDIBszbEUUbrqQ-124" value="&lt;font style=&quot;font-size: 9px;&quot;&gt;6&lt;/font&gt;" style="text;html=1;align=center;verticalAlign=middle;whiteSpace=wrap;rounded=0;movable=1;resizable=1;rotatable=1;deletable=1;editable=1;locked=0;connectable=1;" vertex="1" parent="1">
          <mxGeometry x="1549.1092537313432" y="1241.6" width="20.8955223880597" height="27.428571428571423" as="geometry" />
        </mxCell>
        <mxCell id="-AfhXHmDIBszbEUUbrqQ-125" value="" style="endArrow=classic;html=1;rounded=0;movable=1;resizable=1;rotatable=1;deletable=1;editable=1;locked=0;connectable=1;" edge="1" parent="1">
          <mxGeometry width="50" height="50" relative="1" as="geometry">
            <mxPoint x="1317.3701492537314" y="1227.05" as="sourcePoint" />
            <mxPoint x="1406.176119402985" y="1227.05" as="targetPoint" />
          </mxGeometry>
        </mxCell>
        <mxCell id="-AfhXHmDIBszbEUUbrqQ-126" value="" style="endArrow=classic;html=1;rounded=0;movable=1;resizable=1;rotatable=1;deletable=1;editable=1;locked=0;connectable=1;" edge="1" parent="1">
          <mxGeometry width="50" height="50" relative="1" as="geometry">
            <mxPoint x="1487.6738805970147" y="1131.8857142857141" as="sourcePoint" />
            <mxPoint x="1487.6738805970147" y="1179.8857142857141" as="targetPoint" />
          </mxGeometry>
        </mxCell>
        <mxCell id="-AfhXHmDIBszbEUUbrqQ-127" value="Adapted learning path" style="text;html=1;align=center;verticalAlign=middle;whiteSpace=wrap;rounded=0;fontSize=9;movable=1;resizable=1;rotatable=1;deletable=1;editable=1;locked=0;connectable=1;" vertex="1" parent="1">
          <mxGeometry x="1220" y="1221.03" width="92.15" height="13.71" as="geometry" />
        </mxCell>
        <mxCell id="-AfhXHmDIBszbEUUbrqQ-128" value="" style="endArrow=classic;html=1;rounded=0;movable=1;resizable=1;rotatable=1;deletable=1;editable=1;locked=0;connectable=1;" edge="1" parent="1">
          <mxGeometry width="50" height="50" relative="1" as="geometry">
            <mxPoint x="1571.034776119403" y="1226.1599999999999" as="sourcePoint" />
            <mxPoint x="1659.8407462686569" y="1226.1599999999999" as="targetPoint" />
          </mxGeometry>
        </mxCell>
        <mxCell id="-AfhXHmDIBszbEUUbrqQ-129" value="&lt;font style=&quot;font-size: 9px;&quot;&gt;Updated learning materials&lt;/font&gt;" style="text;html=1;align=center;verticalAlign=middle;whiteSpace=wrap;rounded=0;movable=1;resizable=1;rotatable=1;deletable=1;editable=1;locked=0;connectable=1;" vertex="1" parent="1">
          <mxGeometry x="1660.0025373134326" y="1209.5085714285715" width="120.1492537313433" height="34.28571428571428" as="geometry" />
        </mxCell>
        <mxCell id="-AfhXHmDIBszbEUUbrqQ-130" value="&lt;font&gt;Content standards&lt;/font&gt;" style="text;html=1;align=center;verticalAlign=middle;whiteSpace=wrap;rounded=0;fontSize=9;movable=1;resizable=1;rotatable=1;deletable=1;editable=1;locked=0;connectable=1;" vertex="1" parent="1">
          <mxGeometry x="1467.1962686567163" y="1091.8257142857142" width="41.7910447761194" height="41.14285714285714" as="geometry" />
        </mxCell>
        <mxCell id="-AfhXHmDIBszbEUUbrqQ-131" value="" style="endArrow=classic;html=1;rounded=0;movable=1;resizable=1;rotatable=1;deletable=1;editable=1;locked=0;connectable=1;" edge="1" parent="1">
          <mxGeometry width="50" height="50" relative="1" as="geometry">
            <mxPoint x="1487.6707462686568" y="1317.0285714285715" as="sourcePoint" />
            <mxPoint x="1487.6707462686568" y="1269.0285714285715" as="targetPoint" />
          </mxGeometry>
        </mxCell>
        <mxCell id="-AfhXHmDIBszbEUUbrqQ-132" value="&lt;font style=&quot;font-size: 9px;&quot;&gt;Authoring tools&lt;/font&gt;" style="text;html=1;align=center;verticalAlign=middle;whiteSpace=wrap;rounded=0;movable=1;resizable=1;rotatable=1;deletable=1;editable=1;locked=0;connectable=1;" vertex="1" parent="1">
          <mxGeometry x="1453.7293333333332" y="1310" width="68.71200000000002" height="41.13999999999999" as="geometry" />
        </mxCell>
        <mxCell id="-AfhXHmDIBszbEUUbrqQ-133" value="&lt;font style=&quot;font-size: 11px;&quot;&gt;NO.:&amp;nbsp; &amp;nbsp; &amp;nbsp;P8&lt;/font&gt;" style="text;html=1;align=left;verticalAlign=middle;whiteSpace=wrap;rounded=0;movable=1;resizable=1;rotatable=1;deletable=1;editable=1;locked=0;connectable=1;" vertex="1" parent="1">
          <mxGeometry x="1689.1" y="1478.8600000000001" width="140" height="41.14" as="geometry" />
        </mxCell>
        <mxCell id="-AfhXHmDIBszbEUUbrqQ-134" value="&lt;font style=&quot;font-size: 11px;&quot;&gt;&amp;nbsp;NODE:&lt;span style=&quot;background-color: transparent; color: light-dark(rgb(0, 0, 0), rgb(255, 255, 255));&quot;&gt;&amp;nbsp; &amp;nbsp;A6&lt;/span&gt;&lt;/font&gt;" style="text;html=1;align=left;verticalAlign=middle;whiteSpace=wrap;rounded=0;movable=1;resizable=1;rotatable=1;deletable=1;editable=1;locked=0;connectable=1;" vertex="1" parent="1">
          <mxGeometry x="1184" y="1478.8600000000001" width="109.1" height="41.14" as="geometry" />
        </mxCell>
        <mxCell id="-AfhXHmDIBszbEUUbrqQ-135" value="" style="endArrow=none;html=1;rounded=0;exitX=1;exitY=1;exitDx=0;exitDy=0;entryX=1;entryY=0;entryDx=0;entryDy=0;movable=1;resizable=1;rotatable=1;deletable=1;editable=1;locked=0;connectable=1;" edge="1" parent="1" source="-AfhXHmDIBszbEUUbrqQ-134" target="-AfhXHmDIBszbEUUbrqQ-134">
          <mxGeometry width="50" height="50" relative="1" as="geometry">
            <mxPoint x="1493.2388059701493" y="1547.4285714285713" as="sourcePoint" />
            <mxPoint x="1464.9253731343283" y="1463.3325714285716" as="targetPoint" />
          </mxGeometry>
        </mxCell>
        <mxCell id="-AfhXHmDIBszbEUUbrqQ-136" value="&lt;font style=&quot;font-size: 11px;&quot;&gt;TITLE:&amp;nbsp; &amp;nbsp; &amp;nbsp; &amp;nbsp; &amp;nbsp; &lt;b&gt;Update Learning Materials&lt;/b&gt;&lt;/font&gt;" style="text;html=1;align=left;verticalAlign=middle;whiteSpace=wrap;rounded=0;movable=1;resizable=1;rotatable=1;deletable=1;editable=1;locked=0;connectable=1;" vertex="1" parent="1">
          <mxGeometry x="1306" y="1485.71" width="373.1" height="27.43" as="geometry" />
        </mxCell>
      </root>
    </mxGraphModel>
  </diagram>
</mxfile>
